<svg width="315" height="131" viewBox="0 0 315 131" fill="none" xmlns="http://www.w3.org/2000/svg">
<path d="M103.41 129.7L38.5899 11.79L0.679932 125.54" stroke="#53348D" stroke-width="0.25" stroke-miterlimit="10"/>
<path d="M113.45 127.63L47.3699 17.43L13.71 119.6" stroke="#53348D" stroke-width="0.25" stroke-miterlimit="10"/>
<path d="M123.5 125.56L56.15 23.07L26.7299 113.67" stroke="#53348D" stroke-width="0.25" stroke-miterlimit="10"/>
<path d="M133.54 123.49L64.9199 28.71L39.7599 107.73" stroke="#53348D" stroke-width="0.25" stroke-miterlimit="10"/>
<path d="M143.58 121.42L73.7 34.35L52.7799 101.79" stroke="#53348D" stroke-width="0.25" stroke-miterlimit="10"/>
<path d="M153.62 119.35L82.4799 39.9901L65.8099 95.86" stroke="#53348D" stroke-width="0.25" stroke-miterlimit="10"/>
<path d="M163.67 117.27L91.2599 45.6401L78.83 89.92" stroke="#53348D" stroke-width="0.25" stroke-miterlimit="10"/>
<path d="M173.71 115.2L100.04 51.27L91.8599 83.98" stroke="#53348D" stroke-width="0.25" stroke-miterlimit="10"/>
<path d="M183.75 113.13L108.81 56.92L104.88 78.05" stroke="#53348D" stroke-width="0.25" stroke-miterlimit="10"/>
<path d="M193.79 111.06L117.59 62.56L117.9 72.11" stroke="#53348D" stroke-width="0.25" stroke-miterlimit="10"/>
<path d="M203.84 108.99L126.37 68.2L130.93 66.18" stroke="#53348D" stroke-width="0.25" stroke-miterlimit="10"/>
<path d="M213.88 106.92L135.15 73.84L143.95 60.2401" stroke="#53348D" stroke-width="0.25" stroke-miterlimit="10"/>
<path d="M223.92 104.85L143.92 79.48L156.98 54.3" stroke="#53348D" stroke-width="0.25" stroke-miterlimit="10"/>
<path d="M233.96 102.78L152.7 85.1201L170 48.3701" stroke="#53348D" stroke-width="0.25" stroke-miterlimit="10"/>
<path d="M244.01 100.71L161.48 90.7601L183.03 42.43" stroke="#53348D" stroke-width="0.25" stroke-miterlimit="10"/>
<path d="M254.05 98.6401L170.26 96.4L196.05 36.4901" stroke="#53348D" stroke-width="0.25" stroke-miterlimit="10"/>
<path d="M264.09 96.56L179.04 102.04L209.08 30.56" stroke="#53348D" stroke-width="0.25" stroke-miterlimit="10"/>
<path d="M274.13 94.4901L187.81 107.68L222.1 24.6201" stroke="#53348D" stroke-width="0.25" stroke-miterlimit="10"/>
<path d="M284.18 92.42L196.59 113.32L235.12 18.69" stroke="#53348D" stroke-width="0.25" stroke-miterlimit="10"/>
<path d="M294.22 90.35L205.37 118.96L248.15 12.7501" stroke="#53348D" stroke-width="0.25" stroke-miterlimit="10"/>
<path d="M304.26 88.28L214.15 124.6L261.17 6.81" stroke="#53348D" stroke-width="0.25" stroke-miterlimit="10"/>
<path d="M314.3 86.21L222.93 130.24L274.2 0.880066" stroke="#53348D" stroke-width="0.25" stroke-miterlimit="10"/>
</svg>
