<svg width="239" height="122" viewBox="0 0 239 122" fill="none" xmlns="http://www.w3.org/2000/svg">
<path d="M0.679932 121.39L42.1199 83.27L0.809937 0.730042" stroke="#53348D" stroke-width="0.25" stroke-miterlimit="10"/>
<path d="M14.65 121.39L50.77 80.71L14.7599 0.730042" stroke="#53348D" stroke-width="0.25" stroke-miterlimit="10"/>
<path d="M28.6199 121.39L59.4299 78.15L28.7199 0.730042" stroke="#53348D" stroke-width="0.25" stroke-miterlimit="10"/>
<path d="M42.5899 121.39L68.08 75.59L42.6699 0.730042" stroke="#53348D" stroke-width="0.25" stroke-miterlimit="10"/>
<path d="M56.5599 121.39L76.7299 73.03L56.6299 0.730042" stroke="#53348D" stroke-width="0.25" stroke-miterlimit="10"/>
<path d="M70.5299 121.39L85.3799 70.48L70.5899 0.730042" stroke="#53348D" stroke-width="0.25" stroke-miterlimit="10"/>
<path d="M84.5099 121.39L94.0399 67.92L84.5399 0.730042" stroke="#53348D" stroke-width="0.25" stroke-miterlimit="10"/>
<path d="M98.4799 121.39L102.69 65.36L98.4999 0.730042" stroke="#53348D" stroke-width="0.25" stroke-miterlimit="10"/>
<path d="M112.45 121.39L111.34 62.8L112.46 0.730042" stroke="#53348D" stroke-width="0.25" stroke-miterlimit="10"/>
<path d="M126.42 121.39L120 60.2401L126.41 0.730042" stroke="#53348D" stroke-width="0.25" stroke-miterlimit="10"/>
<path d="M140.39 121.39L128.65 57.68L140.37 0.730042" stroke="#53348D" stroke-width="0.25" stroke-miterlimit="10"/>
<path d="M154.36 121.39L137.3 55.1301L154.33 0.730042" stroke="#53348D" stroke-width="0.25" stroke-miterlimit="10"/>
<path d="M168.33 121.39L145.95 52.57L168.28 0.730042" stroke="#53348D" stroke-width="0.25" stroke-miterlimit="10"/>
<path d="M182.3 121.39L154.61 50.0101L182.24 0.730042" stroke="#53348D" stroke-width="0.25" stroke-miterlimit="10"/>
<path d="M196.28 121.39L163.26 47.45L196.2 0.730042" stroke="#53348D" stroke-width="0.25" stroke-miterlimit="10"/>
<path d="M210.25 121.39L171.91 44.8901L210.15 0.730042" stroke="#53348D" stroke-width="0.25" stroke-miterlimit="10"/>
<path d="M224.22 121.39L180.56 42.33L224.11 0.730042" stroke="#53348D" stroke-width="0.25" stroke-miterlimit="10"/>
<path d="M238.19 121.39L189.22 39.78L238.06 0.730042" stroke="#53348D" stroke-width="0.25" stroke-miterlimit="10"/>
</svg>
