<svg version="1.1" id="Layer_1" xmlns="http://www.w3.org/2000/svg" xmlns:xlink="http://www.w3.org/1999/xlink" x="0px" y="0px"
	 width="100%" viewBox="0 0 1576 409" enable-background="new 0 0 1576 409" xml:space="preserve">
<path fill="none" opacity="1.000000" stroke="#000000" stroke-linecap="round" stroke-linejoin="round" stroke-width="14.000000"
	d="
M461.500000,99.500000 
	C473.922058,92.040649 471.903809,76.147194 461.464905,70.060173 
	C450.895233,63.896904 439.833923,61.290291 427.987213,66.973351 
	C409.041718,76.061836 409.083649,100.862381 425.402863,111.154007 
	C434.578217,116.940369 444.684845,120.639145 454.024200,125.957481 
	C459.931854,129.321609 465.612915,132.934784 468.958313,139.022903 
	C477.566864,154.689270 471.915833,171.903763 453.441193,176.777008 
	C441.102509,180.031693 428.979004,178.084503 418.440247,169.574005 
	C412.201324,164.535873 408.610809,154.575119 414.460358,145.474518 
	C416.425476,142.417282 419.003265,140.625946 422.500000,140.000000 
"/>
<path fill="none" opacity="1.000000" stroke="#000000" stroke-linecap="round" stroke-linejoin="round" stroke-width="11.000000"
	d="
M796.500000,141.500000 
	C807.334290,144.525131 817.913208,145.524155 826.982117,136.981049 
	C833.205444,131.118576 837.208984,120.737587 832.034485,110.482613 
	C828.585022,103.646362 819.695496,100.087723 810.495483,100.324310 
	C797.672852,100.654045 789.354370,107.025238 784.623901,118.053139 
	C778.569397,132.167603 778.553955,146.731781 784.555115,160.976791 
	C788.460632,170.247345 801.914856,178.239319 813.530762,176.738235 
	C822.635254,175.561707 830.720276,173.337509 837.568176,167.074539 
	C838.562622,166.164978 838.361877,165.411423 838.500000,164.500000 
"/>
<path fill="none" opacity="1.000000" stroke="#000000" stroke-linecap="round" stroke-linejoin="round" stroke-width="8.000000"
	d="
M1238.750000,170.000000 
	C1251.776733,177.003326 1265.807251,176.997650 1279.435181,173.729584 
	C1292.307495,170.642670 1302.098267,162.437149 1306.994263,149.497849 
	C1313.213623,133.061234 1313.660278,116.420601 1309.032715,99.491066 
	C1303.175659,78.063255 1285.703247,66.589005 1265.010986,64.867981 
	C1255.659668,64.090210 1247.091553,65.507004 1239.035156,70.062263 
	C1237.130981,71.138977 1235.823120,70.726669 1233.970337,70.085548 
	C1228.597900,68.226418 1223.063354,67.576683 1217.500000,69.500000 
"/>
<path fill="none" opacity="1.000000" stroke="#000000" stroke-linecap="round" stroke-linejoin="round" stroke-width="14.000000"
	d="
M1420.500000,171.999985 
	C1417.500000,172.999985 1414.525146,174.085312 1411.493774,174.979065 
	C1407.416992,176.181076 1403.394531,174.480469 1402.097900,170.468353 
	C1400.961792,166.953384 1399.940308,163.129745 1400.124512,159.506332 
	C1400.955322,143.168167 1400.199707,126.831978 1400.498535,110.499977 
	C1400.526489,108.972847 1400.675171,107.405037 1399.001343,106.497482 
	C1387.378906,100.195351 1375.456909,97.781487 1363.008789,104.017548 
	C1352.344849,109.359795 1347.888916,118.750137 1345.937622,129.989166 
	C1343.731567,142.694626 1344.599609,154.818787 1351.534180,165.978760 
	C1356.012451,173.185760 1364.201294,175.787521 1372.523804,174.679062 
	C1379.785400,173.711914 1384.758179,169.626358 1389.411865,164.912994 
	C1392.366821,161.920197 1395.451050,160.544296 1399.500000,161.000000 
"/>
<path fill="none" opacity="1.000000" stroke="#000000" stroke-linecap="round" stroke-linejoin="round" stroke-width="15.000000"
	d="
M673.500000,102.499992 
	C672.500000,102.833321 671.181580,102.870911 670.552246,103.548531 
	C666.786743,107.602974 663.076965,105.757950 658.973450,104.064323 
	C645.483643,98.496803 632.765198,98.536575 621.421814,109.418526 
	C618.194580,112.514534 616.044556,115.969841 614.497192,119.998924 
	C609.399353,133.273376 609.624023,146.622147 614.015198,159.995010 
	C616.188782,166.614441 620.551392,171.520111 627.031738,173.914108 
	C635.102966,176.895813 642.592957,174.496094 649.472107,169.957733 
	C651.322876,168.736740 652.993591,167.141083 654.465210,165.469376 
	C657.166138,162.401199 660.495300,160.823914 664.500000,160.500000 
"/>
<path fill="none" opacity="1.000000" stroke="#000000" stroke-linecap="round" stroke-linejoin="round" stroke-width="15.000000"
	d="
M1564.500000,101.500000 
	C1563.166626,102.000000 1561.553345,102.178589 1560.547729,103.054726 
	C1555.774414,107.213402 1551.517090,104.996307 1546.439453,103.168320 
	C1524.314331,95.203110 1503.091309,105.015091 1499.996582,132.499619 
	C1498.858032,142.611328 1499.075195,152.636948 1503.552490,161.974854 
	C1510.933350,177.368805 1525.811890,178.367996 1538.467041,169.950531 
	C1540.698975,168.465958 1542.629395,166.453262 1544.467407,164.469864 
	C1546.818970,161.932220 1549.662598,160.942581 1553.000000,161.000000 
"/>
<path fill="none" opacity="1.000000" stroke="#000000" stroke-linecap="round" stroke-linejoin="round" stroke-width="12.000000"
	d="
M1107.000000,162.000000 
	C1103.445557,161.415482 1100.606201,162.799667 1098.527832,165.521301 
	C1093.580688,171.999634 1086.789062,174.557953 1079.031372,176.152496 
	C1071.235718,177.754837 1059.613403,169.421356 1058.336670,162.028214 
	C1057.040283,154.522186 1056.495483,147.059998 1056.498901,139.500000 
	C1056.503174,130.166672 1056.667725,120.829369 1056.446899,111.501259 
	C1056.270874,104.062141 1055.346436,103.933777 1048.002075,104.525261 
	C1045.493042,104.727333 1043.099243,105.910583 1040.500000,105.500000 
"/>
<path fill="none" opacity="1.000000" stroke="#000000" stroke-linecap="round" stroke-linejoin="round" stroke-width="12.000000"
	d="
M587.000000,172.000000 
	C583.051758,175.195587 578.456421,176.863968 573.521667,175.890228 
	C568.484680,174.896301 566.526428,171.400345 566.511230,164.999969 
	C566.476074,150.166733 566.466187,135.333221 566.514709,120.500046 
	C566.538025,113.362236 564.434021,106.956848 557.922913,103.651909 
	C551.200195,100.239594 543.984619,101.299362 537.547363,105.080612 
	C533.459717,107.481697 529.814453,110.952026 527.667847,115.087143 
	C525.247620,119.749374 521.757507,121.983818 517.000000,123.000000 
"/>
<path fill="none" opacity="1.000000" stroke="#000000" stroke-linecap="round" stroke-linejoin="round" stroke-width="14.000000"
	d="
M1237.000000,71.500000 
	C1238.058716,73.077461 1237.460571,74.843079 1237.464844,76.500092 
	C1237.518555,96.999954 1237.461060,117.500107 1237.517700,137.999954 
	C1237.543091,147.174301 1236.946167,156.381256 1238.516357,165.497177 
	C1238.963745,168.094208 1238.785522,170.370758 1235.994263,171.485748 
	C1229.999268,173.880569 1224.470581,177.870575 1217.500000,177.000000 
"/>
<path fill="none" opacity="1.000000" stroke="#000000" stroke-linecap="round" stroke-linejoin="round" stroke-width="5.000000"
	d="
M17.500000,107.500000 
	C25.833334,107.080910 34.166668,106.605637 42.500000,107.500000 
"/>
<path fill="none" opacity="1.000000" stroke="#000000" stroke-linecap="round" stroke-linejoin="round" stroke-width="3.000000"
	d="
M81.499992,174.000000 
	C77.499992,181.166656 73.499992,188.333328 69.499992,195.500000 
"/>
<path fill="none" opacity="1.000000" stroke="#000000" stroke-linecap="round" stroke-linejoin="round" stroke-width="6.000000"
	d="
M262.500000,248.500000 
	C270.666656,248.500000 278.833344,248.500000 287.000000,248.500000 
"/>
<path fill="none" opacity="1.000000" stroke="#000000" stroke-linecap="round" stroke-linejoin="round" stroke-width="5.000000"
	d="
M325.500000,315.500000 
	C321.833313,321.833313 318.166656,328.166656 314.500000,334.500000 
"/>
<path fill="none" opacity="1.000000" stroke="#000000" stroke-linecap="round" stroke-linejoin="round" stroke-width="3.000000"
	d="
M140.500000,319.000000 
	C148.833328,319.000000 157.166672,319.000000 165.500000,319.000000 
"/>
<path fill="none" opacity="1.000000" stroke="#000000" stroke-linecap="round" stroke-linejoin="round" stroke-width="6.000000"
	d="
M202.500015,386.500000 
	C199.083344,392.666656 195.666672,398.833344 192.250015,405.000000 
"/>
<path fill="none" opacity="1.000000" stroke="#000000" stroke-linecap="round" stroke-linejoin="round" stroke-width="5.000000"
	d="
M202.500000,103.500000 
	C198.833328,110.166664 195.166672,116.833336 191.500000,123.500000 
"/>
<path fill="none" opacity="1.000000" stroke="#000000" stroke-linecap="round" stroke-linejoin="round" stroke-width="3.000000"
	d="
M17.500000,248.500000 
	C25.833334,248.500000 34.166668,248.500000 42.500000,248.500000 
"/>
<path fill="none" opacity="1.000000" stroke="#000000" stroke-linecap="round" stroke-linejoin="round" stroke-width="5.000000"
	d="
M81.499992,315.000000 
	C77.833328,321.500000 74.166656,328.000000 70.499992,334.500000 
"/>
<path fill="none" opacity="1.000000" stroke="#000000" stroke-linecap="round" stroke-linejoin="round" stroke-width="10.000000"
	d="
M262.500000,107.500000 
	C270.833344,107.500000 279.166656,107.500000 287.500000,107.500000 
"/>
<path fill="none" opacity="1.000000" stroke="#000000" stroke-linecap="round" stroke-linejoin="round" stroke-width="8.000000"
	d="
M325.500000,174.000000 
	C322.333344,179.666672 319.166687,185.333344 316.000000,191.000000 
"/>
<path fill="none" opacity="1.000000" stroke="#000000" stroke-linecap="round" stroke-linejoin="round" stroke-width="5.000000"
	d="
M140.500000,178.500000 
	C148.500000,178.500000 156.500000,178.500000 164.500000,178.500000 
"/>
<path fill="none" opacity="1.000000" stroke="#000000" stroke-linecap="round" stroke-linejoin="round" stroke-width="8.000000"
	d="
M202.500015,245.500000 
	C199.583344,250.833344 196.666672,256.166656 193.750015,261.500000 
"/>
<path fill="none" opacity="1.000000" stroke="#000000" stroke-linecap="round" stroke-linejoin="round" stroke-width="8.000000"
	d="
M760.500000,259.000000 
	C755.237610,258.825806 753.465088,264.069366 749.573792,266.138763 
	C746.888794,267.566681 744.517700,269.498596 741.525024,270.569977 
	C734.762207,272.991150 730.392456,271.242249 728.564148,264.482666 
	C727.235840,259.571442 726.761047,254.429688 725.437683,249.516785 
	C723.537354,242.461716 719.719788,241.444366 713.988281,245.985229 
	C708.143066,250.616241 704.882507,257.470581 699.564270,262.567078 
	C698.552917,263.536224 697.918884,264.894958 696.503479,265.507996 
	C692.503967,267.240265 691.719971,270.609985 692.000000,274.500000 
"/>
<path fill="none" opacity="1.000000" stroke="#000000" stroke-linecap="round" stroke-linejoin="round" stroke-width="12.000000"
	d="
M1450.500000,103.000000 
	C1450.500000,123.333336 1450.486084,143.666687 1450.506714,164.000000 
	C1450.515137,172.200760 1454.739380,177.243347 1461.485352,176.384827 
	C1466.015747,175.808258 1470.668335,174.730957 1474.000000,171.000000 
"/>
<path fill="none" opacity="1.000000" stroke="#000000" stroke-linecap="round" stroke-linejoin="round" stroke-width="11.000000"
	d="
M1128.500000,171.500000 
	C1125.458130,174.551437 1121.270142,174.508621 1117.482910,175.429611 
	C1115.470093,175.919083 1112.876221,174.886826 1112.159180,173.422089 
	C1110.030029,169.073303 1107.203003,164.552353 1108.088135,159.515488 
	C1111.101929,142.364929 1110.278198,125.199600 1109.016846,107.998772 
	C1108.798950,105.027641 1106.603760,103.771332 1104.475098,102.543144 
	C1102.936157,101.655220 1101.166626,101.166664 1099.500000,100.500000 
"/>
<path fill="none" opacity="1.000000" stroke="#000000" stroke-linecap="round" stroke-linejoin="round" stroke-width="12.000000"
	d="
M720.500000,103.000000 
	C715.914307,107.362923 719.243286,112.580894 719.831116,116.955498 
	C720.705322,123.460548 719.866577,129.643250 719.673157,136.005264 
	C719.349487,146.650421 718.900757,157.345276 719.959595,168.004013 
	C720.089111,169.307922 720.112000,171.500305 719.428223,171.865616 
	C714.756104,174.361511 710.530396,178.424606 704.500000,177.000000 
"/>
<path fill="none" opacity="1.000000" stroke="#000000" stroke-linecap="round" stroke-linejoin="round" stroke-width="8.000000"
	d="
M867.000000,272.000000 
	C859.304688,269.817169 859.346069,262.889282 858.129639,256.973328 
	C857.647644,254.629318 857.156677,252.263702 856.436584,250.020370 
	C854.277832,243.295059 849.555237,241.790680 844.050720,247.053055 
	C839.268738,251.624741 836.174316,257.552521 832.501709,263.001160 
	C830.755615,265.591614 828.978088,268.021240 826.038391,269.572754 
	C823.030518,271.160339 821.752869,274.043121 822.000000,277.500000 
"/>
<path fill="none" opacity="1.000000" stroke="#000000" stroke-linecap="round" stroke-linejoin="round" stroke-width="12.000000"
	d="
M514.250000,58.500000 
	C513.833313,59.166664 512.947815,59.936485 513.068481,60.484932 
	C516.168640,74.575851 513.755188,88.841568 514.488831,103.000580 
	C514.827515,109.537529 514.607117,115.977493 516.145386,122.582588 
	C517.410156,128.013306 515.436340,134.175812 514.830017,139.982254 
	C513.726929,150.544769 514.530823,161.000000 515.000000,171.500000 
"/>
<path fill="none" opacity="1.000000" stroke="#000000" stroke-linecap="round" stroke-linejoin="round" stroke-width="7.000000"
	d="
M1024.000000,270.000000 
	C1019.290222,266.704346 1018.349670,261.644409 1018.067200,256.496307 
	C1017.808411,251.778595 1016.670898,247.350922 1015.377747,243.078415 
	C1012.561523,242.501953 1011.054138,243.911758 1009.477539,245.477402 
	C1005.013733,249.910339 1001.684326,255.194351 998.605469,260.560516 
	C996.538940,264.162323 994.333679,267.265015 990.436768,269.025909 
	C985.626526,261.197296 989.716187,250.934113 983.645935,243.509521 
	C980.313843,243.340942 978.491577,245.170486 976.405884,247.412430 
	C970.878723,253.353546 967.259338,260.566895 962.603821,267.074249 
	C961.570984,268.517853 961.014526,270.882568 959.458923,271.368469 
	C955.280823,272.673431 956.602234,275.781921 956.500000,278.500000 
"/>
<path fill="none" opacity="1.000000" stroke="#000000" stroke-linecap="round" stroke-linejoin="round" stroke-width="8.000000"
	d="
M945.500000,64.499992 
	C944.333313,64.999992 943.175781,65.522560 941.998474,65.996223 
	C936.076355,68.378815 932.019897,72.004791 931.366699,78.987526 
	C930.972290,83.202545 927.432617,86.340828 925.640869,90.067734 
	C921.784363,98.089478 917.545654,105.875771 912.960632,113.476242 
	C910.181519,118.083038 907.880188,123.283936 902.000000,125.000000 
"/>
<path fill="none" opacity="1.000000" stroke="#000000" stroke-linecap="round" stroke-linejoin="round" stroke-width="13.000000"
	d="
M1554.500000,107.000000 
	C1555.424194,110.632233 1554.958008,114.332520 1554.977417,118.000122 
	C1555.038452,129.499802 1555.000000,141.000000 1555.000000,152.500000 
	C1555.000000,153.666672 1555.392212,155.021973 1554.936523,155.969482 
	C1551.899414,162.284576 1555.996460,167.168503 1557.947754,172.519058 
	C1558.452148,173.902084 1559.371826,174.570190 1560.510376,174.970612 
	C1565.119019,176.591522 1572.107300,174.457977 1575.500000,170.500000 
"/>
<path fill="none" opacity="1.000000" stroke="#000000" stroke-linecap="round" stroke-linejoin="round" stroke-width="13.000000"
	d="
M665.500000,107.000000 
	C665.666687,108.833328 665.972412,110.666260 665.977783,112.500069 
	C666.018433,126.333282 666.329590,140.178482 665.834351,153.994064 
	C665.641968,159.362198 665.985840,164.416138 667.477783,169.506516 
	C668.940308,174.496506 672.004822,176.384338 676.994629,174.980988 
	C680.189819,174.082367 683.333313,173.000015 686.500000,172.000015 
"/>
<path fill="none" opacity="1.000000" stroke="#000000" stroke-linecap="round" stroke-linejoin="round" stroke-width="12.000000"
	d="
M872.000000,71.500000 
	C873.143494,80.386230 878.802063,87.311470 882.733154,94.878876 
	C886.185730,101.525024 889.886902,108.161804 893.963745,114.523239 
	C895.263611,116.551514 896.145752,118.876366 898.012146,120.485901 
	C902.053772,123.971519 902.512146,128.595200 902.528381,133.499908 
	C902.564697,144.514160 902.587769,155.521744 901.512695,166.501251 
	C901.272461,168.955215 901.768311,170.566696 904.393005,172.174637 
	C909.452209,175.273956 914.938416,176.330658 920.500000,177.500000 
"/>
<path fill="none" opacity="1.000000" stroke="#000000" stroke-linecap="round" stroke-linejoin="round" stroke-width="7.000000"
	d="
M1078.000000,246.500000 
	C1075.585571,248.922104 1076.264893,252.254257 1076.161621,255.006058 
	C1075.747314,266.060181 1067.503540,273.409424 1058.975464,275.916656 
	C1052.279297,277.885284 1047.931763,273.716431 1047.418213,266.505829 
	C1046.560547,254.464813 1054.338257,247.139709 1061.584717,239.581161 
	C1064.019653,237.041183 1071.427246,237.935944 1074.375366,241.600250 
	C1081.778320,250.801407 1090.978394,247.572342 1099.414551,245.196686 
	C1104.464966,243.774475 1109.389282,242.946716 1114.500000,242.500000 
"/>
<path fill="none" opacity="1.000000" stroke="#000000" stroke-linecap="round" stroke-linejoin="round" stroke-width="13.000000"
	d="
M1146.500000,108.500000 
	C1147.333374,108.166664 1148.141113,107.645660 1149.003906,107.528397 
	C1160.361938,105.984543 1160.286743,103.580093 1162.223877,117.969856 
	C1163.926147,130.614136 1161.073975,142.994232 1161.962524,155.502670 
	C1162.352051,160.986832 1162.333252,166.500000 1162.500000,172.000000 
"/>
<path fill="none" opacity="1.000000" stroke="#000000" stroke-linecap="round" stroke-linejoin="round" stroke-width="7.000000"
	d="
M792.000000,246.500000 
	C789.585571,248.922104 790.264893,252.254257 790.161743,255.006058 
	C789.747253,266.060150 781.503540,273.409393 772.975464,275.916656 
	C766.279297,277.885284 762.044128,273.699280 761.393799,266.509613 
	C760.287903,254.281433 768.367859,247.154755 775.586060,239.582016 
	C778.012268,237.036606 785.305542,238.003342 788.401184,241.585388 
	C796.706360,251.195572 806.163818,247.156967 815.470703,244.401031 
	C818.486816,243.507919 821.226685,241.859970 824.500000,243.000000 
"/>
<path fill="none" opacity="1.000000" stroke="#000000" stroke-linecap="round" stroke-linejoin="round" stroke-width="7.000000"
	d="
M927.000000,256.000000 
	C929.360596,260.663391 926.604797,264.794189 925.431213,268.980713 
	C922.478638,279.513611 919.840576,290.088776 918.750000,301.000000 
"/>
<path fill="none" opacity="1.000000" stroke="#000000" stroke-linecap="round" stroke-linejoin="round" stroke-width="7.000000"
	d="
M1300.000000,239.000000 
	C1297.855225,247.160858 1295.541260,255.257141 1290.998169,262.498840 
	C1290.678833,263.007660 1290.030029,263.508667 1290.044067,263.998749 
	C1290.449829,278.219727 1281.635376,289.970581 1279.500000,303.500000 
"/>
<path fill="none" opacity="1.000000" stroke="#000000" stroke-linecap="round" stroke-linejoin="round" stroke-width="8.000000"
	d="
M958.500000,237.500000 
	C957.166687,246.166672 955.703674,254.816376 954.566772,263.508728 
	C954.141052,266.764496 954.131104,270.191681 956.500000,273.000000 
"/>
<path fill="none" opacity="1.000000" stroke="#000000" stroke-linecap="round" stroke-linejoin="round" stroke-width="9.000000"
	d="
M1234.750000,211.500000 
	C1235.427368,215.830933 1232.801758,219.232819 1231.486206,222.995193 
	C1228.742676,230.842499 1226.852661,239.109100 1225.539673,247.088791 
	C1224.347168,254.335724 1224.011108,262.404480 1225.195679,269.969360 
	C1225.769409,273.633759 1227.922729,277.356445 1232.000000,279.000000 
"/>
<path fill="none" opacity="1.000000" stroke="#000000" stroke-linecap="round" stroke-linejoin="round" stroke-width="9.000000"
	d="
M650.750000,212.000000 
	C649.243347,217.745697 647.668884,223.210724 643.664856,228.134064 
	C637.855103,235.277740 632.200195,242.873383 628.271057,251.128983 
	C624.319824,259.431091 617.583008,265.375763 612.967285,272.980164 
	C610.174805,277.580841 606.523865,280.869141 600.500000,279.000000 
"/>
<path fill="none" opacity="1.000000" stroke="#000000" stroke-linecap="round" stroke-linejoin="round" stroke-width="8.000000"
	d="
M1289.500000,264.500000 
	C1286.498901,264.608124 1283.975098,265.698090 1281.441650,267.413879 
	C1277.804321,269.877350 1273.864746,271.920898 1269.506714,273.026520 
	C1265.318970,274.089050 1262.143066,272.428467 1259.531738,269.471924 
	C1257.182495,266.811951 1257.073853,263.827087 1258.447266,260.478363 
	C1261.288696,253.550049 1263.833374,246.500015 1266.500000,239.500015 
"/>
<path fill="none" opacity="1.000000" stroke="#000000" stroke-linecap="round" stroke-linejoin="round" stroke-width="8.000000"
	d="
M660.000000,252.500000 
	C651.065125,255.743942 641.740906,257.471039 632.487915,259.443359 
	C630.265869,259.917023 628.042664,259.037354 626.000000,258.000000 
"/>
<path fill="none" opacity="1.000000" stroke="#000000" stroke-linecap="round" stroke-linejoin="round" stroke-width="11.000000"
	d="
M1191.500000,125.000000 
	C1200.045898,121.341240 1203.349487,111.430298 1198.000000,105.500000 
	C1193.967163,101.029327 1186.872803,100.692490 1182.538940,105.038811 
	C1179.596313,107.989861 1176.740234,111.194283 1175.076172,115.033043 
	C1172.886963,120.083580 1169.631592,123.401588 1164.000000,124.000000 
"/>
<path fill="none" opacity="1.000000" stroke="#000000" stroke-linecap="round" stroke-linejoin="round" stroke-width="7.000000"
	d="
M1142.000000,250.500000 
	C1136.599854,254.472092 1134.090576,260.816254 1129.638672,265.628357 
	C1126.565918,268.949799 1123.243896,271.719910 1119.454834,273.922241 
	C1116.912109,275.400177 1113.756592,275.950531 1111.039307,274.429657 
	C1107.639771,272.526825 1107.038696,269.012207 1107.551880,265.507599 
	C1108.361328,259.979858 1109.914795,254.589676 1110.660034,249.021408 
	C1110.923218,247.054092 1110.678467,245.333328 1110.500000,243.500000 
"/>
<path fill="none" opacity="1.000000" stroke="#000000" stroke-linecap="round" stroke-linejoin="round" stroke-width="7.000000"
	d="
M1224.000000,249.000000 
	C1221.470947,249.073425 1219.937988,250.559113 1218.463623,252.471939 
	C1214.278198,257.902191 1210.324585,263.682068 1204.922852,267.901306 
	C1197.390015,273.785187 1190.742188,281.010376 1181.497925,284.494446 
	C1179.087769,285.402832 1178.755371,287.294342 1179.000000,289.500000 
"/>
<path fill="none" opacity="1.000000" stroke="#000000" stroke-linecap="round" stroke-linejoin="round" stroke-width="8.000000"
	d="
M648.500000,223.500000 
	C653.444519,227.285156 654.645752,233.161163 656.401062,238.532333 
	C659.668640,248.530365 662.729431,258.589172 667.541809,267.978577 
	C669.253235,271.317688 670.023193,275.548126 674.500000,276.750000 
"/>
<path fill="none" opacity="1.000000" stroke="#000000" stroke-linecap="round" stroke-linejoin="round" stroke-width="11.000000"
	d="
M749.000000,102.500000 
	C757.337891,105.980728 759.738342,113.804077 754.435913,120.952446 
	C753.027405,122.851341 750.772766,124.075798 748.500000,125.000000 
"/>
<path fill="none" opacity="1.000000" stroke="#000000" stroke-linecap="round" stroke-linejoin="round" stroke-width="8.000000"
	d="
M696.500000,237.500000 
	C695.028320,244.006531 692.547424,250.231750 691.848206,256.984283 
	C691.467102,260.665283 691.476196,263.895233 693.500000,267.000000 
"/>
<path fill="none" opacity="1.000000" stroke="#000000" stroke-linecap="round" stroke-linejoin="round" stroke-width="6.000000"
	d="
M1181.000000,251.000000 
	C1177.323486,251.805542 1174.975952,254.685486 1172.590698,257.089935 
	C1166.991821,262.733704 1159.838989,265.550812 1153.000000,269.000000 
"/>
<path fill="none" opacity="1.000000" stroke="#000000" stroke-linecap="round" stroke-linejoin="round" stroke-width="7.000000"
	d="
M827.000000,240.000000 
	C824.072510,243.140991 825.046326,247.347900 824.072388,251.019211 
	C823.078491,254.765717 822.561340,258.652252 822.034790,262.504761 
	C821.643433,265.367645 822.039734,268.156738 824.000000,270.500000 
"/>
<path fill="none" opacity="1.000000" stroke="#000000" stroke-linecap="round" stroke-linejoin="round" stroke-width="5.000000"
	d="
M310.500000,80.500000 
	C310.624756,89.333336 311.787384,98.166664 310.500000,107.000000 
"/>
<path fill="none" opacity="1.000000" stroke="#000000" stroke-linecap="round" stroke-linejoin="round" stroke-width="5.000000"
	d="
M66.500000,80.500000 
	C67.359718,89.333336 66.333466,98.166664 66.500000,107.000000 
"/>
<path fill="none" opacity="1.000000" stroke="#000000" stroke-linecap="round" stroke-linejoin="round" stroke-width="5.000000"
	d="
M188.500000,151.500000 
	C188.500000,160.333328 188.500000,169.166672 188.500000,178.000000 
"/>
<path fill="none" opacity="1.000000" stroke="#000000" stroke-linecap="round" stroke-linejoin="round" stroke-width="7.000000"
	d="
M893.000000,255.000000 
	C890.434814,255.016647 889.043457,256.613647 887.429932,258.438019 
	C881.968262,264.613617 876.299011,270.654175 867.505920,272.037750 
	C867.292114,272.071442 867.166687,272.666656 867.000000,273.000000 
"/>
<path fill="none" opacity="1.000000" stroke="#000000" stroke-linecap="round" stroke-linejoin="round" stroke-width="8.000000"
	d="
M66.750000,222.500000 
	C67.713951,227.849701 66.700577,233.208450 66.278557,238.482285 
	C66.004280,241.909714 67.269058,245.166672 66.500000,248.500000 
"/>
<path fill="none" opacity="1.000000" stroke="#000000" stroke-linecap="round" stroke-linejoin="round" stroke-width="8.000000"
	d="
M310.750000,222.500000 
	C310.833344,231.000000 310.916656,239.500000 311.000000,248.000000 
"/>
<path fill="none" opacity="1.000000" stroke="#000000" stroke-linecap="round" stroke-linejoin="round" stroke-width="6.000000"
	d="
M1256.500000,265.000000 
	C1252.773438,265.452881 1250.526855,268.315979 1248.059570,270.565338 
	C1243.548340,274.677887 1239.170654,278.736786 1232.498413,278.563385 
	C1232.344849,278.559387 1232.166626,279.500000 1232.000000,280.000000 
"/>
<path fill="none" opacity="1.000000" stroke="#000000" stroke-linecap="round" stroke-linejoin="round" stroke-width="10.000000"
	d="
M188.500000,295.000000 
	C188.500000,303.000000 188.500000,311.000000 188.500000,319.000000 
"/>
<path fill="none" opacity="1.000000" stroke="#000000" stroke-linecap="round" stroke-linejoin="round" stroke-width="7.000000"
	d="
M935.250000,232.000000 
	C934.658691,238.734436 931.671509,244.748749 929.454651,250.983887 
	C928.539124,253.559097 927.222961,256.016968 924.002563,256.516571 
	C921.903259,256.842255 921.011108,258.850983 919.488892,259.985107 
	C914.843567,263.446045 910.187561,266.782684 904.002625,267.059204 
	C900.202332,267.229095 897.136108,266.133179 896.102905,262.470947 
	C894.905518,258.226868 892.749084,254.377396 896.175476,249.281799 
	C899.166809,244.833115 900.734375,238.860870 900.750000,233.000000 
"/>
<path fill="none" opacity="1.000000" stroke="#000000" stroke-linecap="round" stroke-linejoin="round" stroke-width="8.000000"
	d="
M1190.000000,235.500000 
	C1187.040771,239.391113 1182.422974,242.063736 1182.296753,247.995667 
	C1182.250732,250.154617 1182.367310,251.562393 1183.354980,253.571320 
	C1186.887695,260.756622 1193.078491,266.453003 1195.000000,274.500000 
"/>
<path fill="none" opacity="1.000000" stroke="#000000" stroke-linecap="round" stroke-linejoin="round" stroke-width="6.000000"
	d="
M1454.500000,79.500000 
	C1453.634644,87.015450 1451.171997,94.167877 1449.500000,101.500000 
"/>
<path fill="none" opacity="1.000000" stroke="#000000" stroke-linecap="round" stroke-linejoin="round" stroke-width="6.000000"
	d="
M1046.500000,258.500000 
	C1043.747314,258.230225 1041.894043,259.957825 1040.010132,261.512238 
	C1035.413208,265.305237 1031.232422,269.856689 1024.497192,269.563568 
	C1024.352661,269.557312 1024.166748,270.500000 1024.000000,271.000000 
"/>
<path fill="none" opacity="1.000000" stroke="#000000" stroke-linecap="round" stroke-linejoin="round" stroke-width="9.000000"
	d="
M1472.000000,102.000000 
	C1465.333374,102.166672 1458.535645,103.205856 1452.040405,102.230743 
	C1446.602783,101.414398 1441.662231,102.209839 1436.485107,102.886070 
	C1435.214966,103.051987 1434.473267,104.121330 1433.250000,104.000000 
"/>
<path fill="none" opacity="1.000000" stroke="#000000" stroke-linecap="round" stroke-linejoin="round" stroke-width="2.000000"
	d="
M748.500000,101.000000 
	C748.652649,102.971992 747.142639,101.915703 746.497498,101.945686 
	C742.903809,102.112648 740.199585,103.847725 738.010742,106.508858 
	C735.328918,109.769501 732.630493,113.031456 731.000000,117.000000 
"/>
<path fill="none" opacity="1.000000" stroke="#000000" stroke-linecap="round" stroke-linejoin="round" stroke-width="7.000000"
	d="
M1146.999878,233.499969 
	C1145.999878,236.999969 1145.024414,240.507217 1143.992798,243.997879 
	C1143.035889,247.235367 1141.593628,250.169296 1144.349121,253.620468 
	C1146.075317,255.782379 1145.659058,259.234253 1146.791626,262.082855 
	C1148.083862,265.333221 1149.953857,267.046082 1153.000000,268.000000 
"/>
<path fill="none" opacity="1.000000" stroke="#000000" stroke-linecap="round" stroke-linejoin="round" stroke-width="6.000000"
	d="
M888.500000,64.500000 
	C883.446594,65.753098 878.259155,66.828857 874.055542,70.071968 
	C871.964050,71.685509 870.610107,70.529640 869.004639,69.740517 
	C864.653076,67.601585 860.371216,65.295494 855.500000,64.500000 
"/>
<path fill="none" opacity="1.000000" stroke="#000000" stroke-linecap="round" stroke-linejoin="round" stroke-width="5.000000"
	d="
M524.500000,177.500000 
	C523.833313,177.000000 523.118347,176.552567 522.507874,175.991425 
	C518.688843,172.481186 514.880371,171.347351 509.913818,174.357819 
	C506.930695,176.166031 503.569336,178.557846 499.500000,177.000000 
"/>
<path fill="none" opacity="1.000000" stroke="#000000" stroke-linecap="round" stroke-linejoin="round" stroke-width="4.000000"
	d="
M512.500000,60.500000 
	C507.698578,58.946613 503.091278,60.111107 498.500000,61.500000 
"/>
<path fill="none" opacity="1.000000" stroke="#000000" stroke-linecap="round" stroke-linejoin="round" stroke-width="4.000000"
	d="
M933.500000,71.000000 
	C928.833313,68.833336 924.166687,66.666672 919.500000,64.500000 
"/>
<path fill="none" opacity="1.000000" stroke="#000000" stroke-linecap="round" stroke-linejoin="round" stroke-width="4.000000"
	d="
M1172.500000,177.500000 
	C1166.427490,172.210037 1160.096191,172.036392 1153.492676,176.489197 
	C1151.996094,177.498428 1150.267334,177.670273 1148.500000,177.500000 
"/>
<path fill="none" opacity="1.000000" stroke="#000000" stroke-linecap="round" stroke-linejoin="round" stroke-width="6.000000"
	d="
M901.500000,170.500000 
	C897.500000,172.833328 893.500000,175.166672 889.500000,177.500000 
"/>
<path fill="none" opacity="1.000000" stroke="#000000" stroke-linecap="round" stroke-linejoin="round" stroke-width="3.000000"
	d="
M720.000000,172.000000 
	C723.172241,174.573624 726.848755,176.264709 730.500000,178.000000 
"/>
<path fill="none" opacity="1.000000" stroke="#000000" stroke-linecap="round" stroke-linejoin="round" stroke-width="1.000000"
	d="
M729.999939,117.999977 
	C729.666626,118.499977 729.333313,118.999977 728.999939,119.499977 
"/>
<path fill="none" opacity="1.000000" stroke="#000000" stroke-linecap="round" stroke-linejoin="round" stroke-width="15.000000"
	d="
M983.000000,100.500000 
	C967.683044,102.849724 959.608215,112.123482 956.373474,126.972435 
	C953.705627,139.219467 954.408142,150.901199 960.087341,161.955139 
	C965.498657,172.487656 974.708069,177.917740 986.493408,177.360840 
	C997.907166,176.821472 1006.764160,171.213669 1011.445435,160.476212 
	C1018.670593,143.903809 1018.258301,127.453293 1008.385315,112.073631 
	C1002.763794,103.316696 993.931580,99.771965 983.500000,100.500000 
"/>
</svg>