<svg width="24" height="12" viewBox="0 0 24 12" fill="none" xmlns="http://www.w3.org/2000/svg">
<path id="Vector" d="M16.2204 9.6V2.4H2.66667V9.6H16.2204ZM21.3333 4.2H22.6667V7.8H21.3333V10.5C21.3333 10.5875 21.3021 10.6594 21.2396 10.7156C21.1771 10.7719 21.0972 10.8 21 10.8H1.66667C1.56944 10.8 1.48958 10.7719 1.42708 10.7156C1.36458 10.6594 1.33333 10.5875 1.33333 10.5V1.5C1.33333 1.4125 1.36458 1.34062 1.42708 1.28437C1.48958 1.22812 1.56944 1.2 1.66667 1.2H21C21.0972 1.2 21.1771 1.22812 21.2396 1.28437C21.3021 1.34062 21.3333 1.4125 21.3333 1.5V4.2ZM24 7.8V4.2C24 3.86875 23.8698 3.58594 23.6094 3.35156C23.349 3.11719 23.0347 3 22.6667 3V1.5C22.6667 1.0875 22.5035 0.734375 22.1771 0.440624C21.8507 0.146874 21.4583 0 21 0H1.66667C1.20833 0 0.815972 0.146874 0.489583 0.440624C0.163194 0.734375 0 1.0875 0 1.5V10.5C0 10.9125 0.163194 11.2656 0.489583 11.5594C0.815972 11.8531 1.20833 12 1.66667 12H21C21.4583 12 21.8507 11.8531 22.1771 11.5594C22.5035 11.2656 22.6667 10.9125 22.6667 10.5V9C23.0347 9 23.349 8.88281 23.6094 8.64844C23.8698 8.41406 24 8.13125 24 7.8Z" fill="#508218"/>
</svg>
