<svg version="1.1" id="Layer_1" xmlns="http://www.w3.org/2000/svg" xmlns:xlink="http://www.w3.org/1999/xlink" x="0px" y="0px"
	 width="100%" viewBox="0 0 196 268" enable-background="new 0 0 196 268" xml:space="preserve">
<path fill="#c6f6c7b8" opacity="0" stroke="none" 
	d="
M1.000000,107.000000 
	C1.000000,72.500008 1.048443,38.499817 0.915565,4.500342 
	C0.903903,1.516451 1.517542,0.912296 4.500130,0.917459 
	C67.499939,1.026532 130.500015,1.026528 193.499832,0.917470 
	C196.482285,0.912307 197.085342,1.517778 197.081879,4.500059 
	C196.980728,91.499931 196.980728,178.499969 197.081848,265.499847 
	C197.085312,268.481842 196.482651,269.087708 193.499924,269.082520 
	C130.500122,268.973450 67.500038,268.973511 4.500234,269.082550 
	C1.517939,269.087708 0.910480,268.483002 0.916976,265.499908 
	C1.031647,212.833466 1.000000,160.166702 1.000000,107.000000 
z"/>
<path fill="#A5ACB9" opacity="1.000000" stroke="none" 
	d="
M186.556305,90.778336 
	C187.031281,98.991600 187.176086,106.983025 187.181641,114.974556 
	C187.206741,151.120667 186.758743,187.274155 187.369736,223.409958 
	C187.690079,242.354675 173.422272,256.276093 154.445541,256.059235 
	C116.138977,255.621445 77.823898,255.936691 39.512333,255.925064 
	C20.519302,255.919296 7.823595,243.316040 7.816447,224.386566 
	C7.794181,165.420059 7.792899,106.453552 7.817563,47.487061 
	C7.825315,28.954264 20.669182,16.025545 39.136936,15.977863 
	C61.790585,15.919373 84.444511,15.954327 107.098267,15.985146 
	C108.567627,15.987144 110.036552,16.299179 111.764961,16.807419 
	C113.716957,19.104443 113.391533,21.497847 113.395851,23.787708 
	C113.426476,40.016182 113.398186,56.244728 113.425079,72.473206 
	C113.428345,74.446411 113.162628,76.454414 114.038895,78.811996 
	C116.703575,86.397285 121.602272,89.670364 129.310928,89.562950 
	C145.388809,89.338913 161.472183,89.486046 177.553268,89.504585 
	C179.868561,89.507256 182.198929,89.334267 184.909714,90.034271 
	C185.607849,90.318443 185.884949,90.437500 186.556305,90.778336 
z"/>
<path fill="#213252" opacity="1.000000" stroke="none" 
	d="
M186.144196,90.755722 
	C167.658569,90.950233 149.397415,90.572876 131.161377,91.086868 
	C122.606689,91.327980 116.579086,88.834091 113.072937,80.550835 
	C112.338478,79.340889 112.522163,78.313965 112.521751,77.334763 
	C112.513695,58.415997 112.512642,39.497231 112.515785,20.578465 
	C112.515923,19.747093 112.505760,18.917841 113.318932,17.897617 
	C137.722336,41.596638 161.699799,65.546310 185.921722,89.728455 
	C186.237122,90.156975 186.308044,90.353035 186.144196,90.755722 
z"/>
<path fill="#CC9F7C" opacity="1.000000" stroke="none" 
	d="
M113.639099,17.423817 
	C112.823479,18.799917 113.076271,20.158215 113.077438,21.471815 
	C113.094612,40.724667 113.112373,59.977516 113.073410,79.720322 
	C111.490280,78.509308 112.028267,76.411636 112.024193,74.474724 
	C111.984657,55.669018 112.006638,36.863178 112.017654,17.602612 
	C112.527267,17.165453 113.030304,17.183060 113.639099,17.423817 
z"/>
<path fill="#B3B6BE" opacity="1.000000" stroke="none" 
	d="
M186.169739,90.971817 
	C185.971481,90.800224 186.033508,90.638100 186.130859,90.218445 
	C186.431381,90.138382 186.696548,90.315857 186.956161,90.746727 
	C186.777069,90.993843 186.603546,90.987572 186.169739,90.971817 
z"/>
</svg>