<svg version="1.1" id="Layer_1" xmlns="http://www.w3.org/2000/svg" xmlns:xlink="http://www.w3.org/1999/xlink" x="0px" y="0px"
	 width="100%" viewBox="0 0 531 143" enable-background="new 0 0 531 143" xml:space="preserve">
<path fill="#FCFDFC" opacity="1.000000" stroke="none" 
	d="
M353.000000,144.000000 
	C235.333328,144.000000 118.166664,144.000000 1.000000,144.000000 
	C1.000000,96.333336 1.000000,48.666668 1.000000,1.000000 
	C178.000000,1.000000 355.000000,1.000000 532.000000,1.000000 
	C532.000000,48.666668 532.000000,96.333336 532.000000,144.000000 
	C472.500000,144.000000 413.000000,144.000000 353.000000,144.000000 
M264.230408,128.045914 
	C263.978912,127.038925 263.727417,126.031937 263.475922,125.024940 
	C263.040497,125.068588 262.605042,125.112228 262.169617,125.155869 
	C262.104919,126.438766 262.040222,127.721664 261.613586,129.335297 
	C262.156616,129.740707 262.699615,130.146103 263.242645,130.551514 
	C263.493530,130.031708 263.744446,129.511917 264.230408,128.045914 
M403.747162,112.928612 
	C402.763184,112.994644 401.779175,113.060677 400.057983,112.792587 
	C397.320374,112.585526 394.580963,112.399124 391.845551,112.166237 
	C388.340271,111.867821 386.499939,113.254906 386.314789,116.949974 
	C385.753479,116.914696 385.192139,116.879410 384.388702,116.106895 
	C383.690765,114.848137 382.992828,113.589378 382.294922,112.330635 
	C381.847198,113.712891 381.050568,115.088531 381.024231,116.478783 
	C380.968689,119.405235 381.317078,122.339348 381.520721,125.607361 
	C378.615204,125.607361 376.216003,125.607361 373.396210,125.607361 
	C373.208038,123.335197 373.013672,121.219749 372.860901,119.101311 
	C372.320557,111.608727 372.326782,111.609825 366.638031,114.768387 
	C366.558289,114.812668 366.352509,114.629997 366.060486,113.824936 
	C362.578064,113.322243 359.107147,112.706467 355.609741,112.351555 
	C352.652802,112.051476 351.390381,113.553757 351.626770,116.558647 
	C351.899719,120.028603 351.955109,123.515663 351.099030,127.380791 
	C350.424866,123.574417 349.811218,119.755737 349.040894,115.968918 
	C348.799500,114.782120 348.136322,113.681114 347.666199,112.540863 
	C346.495087,113.260239 345.086853,113.766960 344.207153,114.747749 
	C342.813599,116.301376 341.773804,118.172279 340.220367,120.440300 
	C338.141663,117.973602 336.562927,115.891960 334.743866,114.047318 
	C334.046906,113.340569 332.764801,112.799217 331.817444,112.890350 
	C331.144531,112.955078 330.036987,114.227707 330.065063,114.923218 
	C330.244263,119.366631 330.591217,123.810913 331.130768,128.224609 
	C331.220520,128.958755 332.523346,129.544617 333.837067,130.702759 
	C334.005219,126.899261 334.132507,124.019958 334.265900,121.002983 
	C341.598572,124.063965 341.598572,124.063965 345.647675,120.355911 
	C345.861511,121.512077 346.079712,122.402344 346.184753,123.305756 
	C346.965820,130.025055 346.958771,130.025879 352.553375,127.500847 
	C356.300537,130.651764 364.229645,130.522980 367.995483,127.285782 
	C368.294281,127.149567 368.607574,127.071419 369.347534,127.660576 
	C372.428833,128.302353 375.495087,129.388840 378.594543,129.493652 
	C385.114655,129.714142 385.133118,129.491241 386.191620,122.018616 
	C386.521027,121.638618 386.850403,121.258621 387.549011,121.464500 
	C387.844940,121.818756 388.140869,122.173004 388.137207,123.251312 
	C388.056519,123.763962 387.975800,124.276604 387.735779,125.619675 
	C387.813080,128.942917 389.723053,130.251022 392.802460,130.002914 
	C395.842499,129.757996 398.866791,129.317551 402.716309,128.902481 
	C403.536682,128.901108 404.357056,128.899719 406.084564,128.977798 
	C410.604004,128.977798 415.123444,128.977798 419.642883,128.977798 
	C419.727661,128.221527 419.812439,127.465248 419.897217,126.708969 
	C416.326782,126.254150 412.756348,125.799324 408.695984,125.282089 
	C408.434723,121.945992 408.167450,118.502296 407.894623,115.059052 
	C407.718475,112.836014 407.062225,111.352913 403.747162,112.928612 
M262.029205,124.104317 
	C263.149841,122.716995 264.270508,121.329674 265.312225,120.040047 
	C269.454285,122.403603 270.499725,128.923965 277.079773,129.857483 
	C276.528473,127.030861 276.135712,125.017090 275.689880,122.731194 
	C267.695221,124.269897 268.446198,113.240685 261.246399,112.717697 
	C261.132782,114.435600 261.047882,115.719231 260.408569,116.992798 
	C259.860535,116.929810 259.312531,116.866821 258.547760,116.025124 
	C258.023041,110.153259 253.525787,113.201942 250.850723,112.885300 
	C246.632019,112.385956 244.468170,115.720490 243.712692,119.129807 
	C243.089188,121.943527 243.805283,125.091759 244.179413,128.060043 
	C244.263580,128.727875 245.393860,129.263855 246.042557,129.860535 
	C246.498032,129.286285 247.127594,128.775574 247.366074,128.122131 
	C247.683548,127.252296 247.696579,126.271355 247.836288,125.364693 
	C250.563278,125.364693 253.010803,125.364693 254.911194,125.364693 
	C256.085022,127.247910 256.985504,128.692612 257.885986,130.137299 
	C258.322876,129.915222 258.759735,129.693161 259.196594,129.471085 
	C259.196594,127.339561 259.196594,125.208031 259.762695,123.075478 
	C260.321869,123.115181 260.881012,123.154884 262.029205,124.104317 
M267.160645,78.107170 
	C268.900421,72.018517 267.290802,69.215126 261.315979,68.281624 
	C259.370331,67.977638 257.351593,68.016731 255.371918,68.078773 
	C249.261841,68.270271 246.296341,70.618759 245.969620,75.395500 
	C245.521851,81.941284 248.330200,85.850220 254.453796,86.653130 
	C257.217041,87.015434 260.067413,86.753098 262.877258,86.710571 
	C266.591187,86.654366 267.930786,84.841530 266.873352,80.451218 
	C266.860413,79.901917 266.847473,79.352615 267.160645,78.107170 
M140.825119,70.728394 
	C140.825119,70.728394 140.817535,70.464676 141.628052,70.415825 
	C145.448212,78.984688 154.333801,76.717117 161.162323,79.128326 
	C155.416458,83.236084 149.304413,79.730881 143.706146,80.582367 
	C142.683899,84.994576 144.423187,86.854622 148.489975,86.898247 
	C151.311829,86.928513 154.133270,87.192719 156.953217,87.167267 
	C164.734665,87.097069 168.551422,84.623276 168.476715,79.835663 
	C168.396164,74.675293 164.588409,71.962402 156.885864,71.590149 
	C155.724823,71.534035 154.538391,71.651405 153.406128,71.450020 
	C152.253418,71.245010 151.153076,70.745415 148.794281,69.967155 
	C155.052155,66.156738 160.481171,68.924995 165.605667,68.699379 
	C166.889526,64.466820 165.524948,62.630764 161.395584,62.144848 
	C154.546021,61.338840 148.061172,62.223579 141.963760,64.323784 
	C141.756958,62.234661 141.550156,60.145535 141.584656,57.387035 
	C141.383865,56.259953 141.183075,55.132870 141.082092,53.088234 
	C140.790268,49.744450 140.498444,46.400661 140.457443,42.397240 
	C140.273026,41.275051 140.088608,40.152863 140.007767,38.124500 
	C139.736969,35.434971 139.466171,32.745441 139.469437,29.402815 
	C139.295151,28.274298 139.120865,27.145781 139.062607,25.145828 
	C138.741623,21.773457 138.420624,18.401085 138.389114,14.676199 
	C138.246948,14.121323 138.104797,13.566447 138.080582,12.209522 
	C137.900940,11.156425 137.721313,10.103327 137.653427,8.445422 
	C137.097641,7.640660 136.541855,6.835897 135.735443,5.322131 
	C133.794388,4.578775 131.857330,3.202767 129.911636,3.190431 
	C111.502441,3.073713 93.091774,3.195341 74.681503,3.232143 
	C71.159775,3.239183 68.467659,4.450788 67.632858,8.167279 
	C66.876022,11.536664 68.180069,13.957533 71.780434,15.900504 
	C72.871193,16.057222 73.961945,16.213938 75.927139,16.629368 
	C79.266617,16.533812 82.606102,16.438255 86.820572,16.685476 
	C91.244308,16.555262 95.668045,16.425047 100.792038,16.462225 
	C101.503998,16.397377 102.215965,16.332529 103.569221,16.620129 
	C105.738770,16.494701 107.908318,16.369274 110.551346,16.383959 
	C110.551346,16.383959 111.019783,16.227835 111.504677,16.408880 
	C111.665466,16.346319 111.826248,16.283760 112.456863,16.372698 
	C112.456863,16.372698 112.928215,16.226000 113.327019,16.675283 
	C113.710487,17.130953 114.093956,17.586622 113.924202,18.475353 
	C104.892281,28.351370 95.860352,38.227386 86.108940,48.096737 
	C85.619247,48.021755 85.062347,48.073166 84.649513,47.853642 
	C65.271858,37.549488 46.851006,40.524445 28.880995,51.622147 
	C24.959219,54.044113 22.655445,56.605038 23.645918,61.653561 
	C25.437412,70.784966 26.755667,80.009132 28.277124,89.193634 
	C29.649458,97.477928 32.985401,105.032219 39.273914,110.481216 
	C45.886318,116.210854 53.393040,120.908379 59.987892,126.852882 
	C51.193993,127.067223 42.400913,127.401344 33.605957,127.461555 
	C25.147860,127.519478 21.568459,123.989098 20.949244,115.475899 
	C19.523424,95.873161 18.083849,76.271408 16.662170,56.668369 
	C15.483668,40.418392 16.043060,39.764320 32.021175,38.739983 
	C35.909458,38.490707 38.894310,37.072678 39.395081,32.789696 
	C39.818531,29.167982 36.551880,25.713917 32.206532,25.354856 
	C29.065855,25.095339 25.867899,25.126972 22.723913,25.380816 
	C10.636577,26.356728 1.798149,36.271835 2.591076,48.371918 
	C4.072211,70.974060 5.646410,93.573433 7.534842,116.144424 
	C8.867178,132.068802 18.966095,140.976334 35.036415,140.979202 
	C56.689983,140.983078 78.343575,140.880112 99.997154,140.825195 
	C120.538963,140.773102 127.014366,125.844383 122.895966,107.748535 
	C122.047630,104.021011 118.936798,102.487495 115.132759,103.076912 
	C111.243599,103.679520 110.049568,106.451790 110.173332,109.984749 
	C110.260727,112.479469 110.666077,114.966980 110.682869,117.459366 
	C110.711021,121.639969 109.055984,126.125015 105.000664,126.372032 
	C93.995407,127.042389 82.917885,126.527390 71.869125,126.463959 
	C71.770836,126.463394 71.674004,126.210487 72.173645,125.626007 
	C75.471672,123.128906 78.694717,120.524681 82.081451,118.154327 
	C93.261124,110.329727 98.682838,99.667755 98.506020,86.010750 
	C98.369347,75.454758 98.506821,64.895218 99.220642,54.201824 
	C99.829407,53.502731 100.438171,52.803638 101.631561,51.915852 
	C102.084335,51.275841 102.537117,50.635830 103.579681,49.682774 
	C106.405884,46.497986 109.232086,43.313194 112.676353,39.947632 
	C113.448898,38.964245 114.221443,37.980858 115.600052,36.710060 
	C118.376190,33.609653 121.152336,30.509245 124.678978,27.500187 
	C125.157646,27.652117 125.636322,27.804047 126.001503,28.851917 
	C126.254715,31.215918 126.507919,33.579918 126.475189,36.599255 
	C126.666237,37.727520 126.857277,38.855785 126.928627,40.885868 
	C127.188370,43.572472 127.448120,46.259071 127.419800,49.688896 
	C127.659836,51.443691 127.899872,53.198490 128.008011,55.858025 
	C128.274246,58.553314 128.540466,61.248600 128.512848,64.532082 
	C128.714096,65.342216 128.915344,66.152359 129.077759,67.654312 
	C130.493500,69.228859 131.909225,70.803406 133.750488,72.903885 
	C136.030716,72.219383 138.310959,71.534882 140.825119,70.728394 
M297.502136,92.511940 
	C285.677032,92.576363 273.851959,92.663216 262.026794,92.701057 
	C224.212494,92.822075 186.398148,92.917809 148.583908,93.049225 
	C145.761841,93.059036 142.331223,92.785065 142.214035,96.819504 
	C142.094757,100.925179 145.397980,101.393387 148.556290,101.406700 
	C154.046143,101.429832 159.536423,101.306244 165.026672,101.286171 
	C265.228180,100.919739 365.429718,100.555893 465.631256,100.201317 
	C484.609650,100.134155 503.588226,100.127159 522.566528,100.045685 
	C525.543335,100.032906 529.166748,100.362831 529.013184,95.878281 
	C528.868469,91.649094 525.457886,91.745193 522.368408,91.757378 
	C521.868591,91.759354 521.368713,91.746475 520.868896,91.748047 
	C446.746216,91.981186 372.623566,92.215027 297.502136,92.511940 
M369.304718,74.279213 
	C369.521851,76.928688 369.914581,79.578583 369.908203,82.227531 
	C369.901428,85.047493 371.242859,86.092064 373.851776,86.084717 
	C378.163208,86.072578 382.510529,86.457375 386.777954,86.029221 
	C393.257446,85.379120 396.336365,82.293053 396.796631,76.912163 
	C397.447845,69.299263 394.713593,63.504200 388.508240,62.329506 
	C382.163422,61.128414 375.533783,61.432007 368.491394,61.047592 
	C368.802673,66.131065 369.023987,69.745209 369.304718,74.279213 
M457.669647,86.093765 
	C461.374023,85.875816 465.078369,85.657867 469.149139,85.418358 
	C468.871246,81.630249 469.038483,78.077843 468.216370,74.771431 
	C467.676208,72.598801 465.991791,69.407425 464.326202,69.063614 
	C459.442535,68.055550 454.313629,68.193703 449.275970,68.030830 
	C448.693878,68.012016 447.489166,69.109840 447.572784,69.376976 
	C448.735535,73.090714 446.766235,76.292320 446.307739,79.716133 
	C446.097748,81.284279 448.290192,83.814415 450.024475,84.828194 
	C451.873444,85.909004 454.468079,85.714096 457.669647,86.093765 
M201.539093,77.174072 
	C199.552490,82.535072 201.271118,85.998558 207.074081,86.616859 
	C212.406860,87.185051 217.847855,86.737602 223.480621,86.737602 
	C223.294174,83.626152 223.152344,81.148415 222.996017,78.671593 
	C222.524673,71.203415 219.945053,68.568657 212.529572,68.216248 
	C210.211151,68.106064 207.872971,68.299171 205.549133,68.440575 
	C201.841614,68.666176 201.181320,70.639458 202.357666,73.867897 
	C202.632263,74.621506 202.097305,75.670097 201.539093,77.174072 
M402.010254,76.810631 
	C400.500854,82.217773 402.440765,85.439842 408.248383,85.936996 
	C413.423737,86.380028 418.666992,86.030075 424.212219,86.030075 
	C424.052612,82.932121 423.956238,80.624626 423.810883,78.320229 
	C423.309784,70.377068 420.615814,67.695633 412.714111,67.455170 
	C410.569214,67.389908 408.414886,67.695129 406.263062,67.787933 
	C401.881042,67.976913 402.226990,70.582451 403.081573,73.666977 
	C403.292236,74.427238 402.712158,75.406563 402.010254,76.810631 
M185.129761,74.167496 
	C190.611191,74.755867 189.747086,79.155144 189.833755,82.576286 
	C189.951431,87.221107 191.972153,87.895470 196.847595,86.047020 
	C195.786423,81.275520 196.164139,75.153542 193.286789,72.152802 
	C190.175690,68.908325 184.024902,68.578545 178.423691,66.719872 
	C177.971512,64.112183 178.454208,59.263943 171.707428,59.215607 
	C172.381332,68.515648 173.043793,77.657539 173.704865,86.780289 
	C176.083893,86.780289 177.670609,86.780289 179.715775,86.780289 
	C179.562408,84.331253 179.654434,82.172035 179.250595,80.109924 
	C178.418533,75.861336 179.684875,73.647827 185.129761,74.167496 
M302.336761,85.372368 
	C306.249847,85.667801 310.224731,86.492256 314.051178,86.045540 
	C316.102600,85.806038 318.642090,83.774399 319.658142,81.859863 
	C321.897278,77.640564 319.516785,71.186935 315.665192,69.211548 
	C310.658356,66.643669 301.337860,67.727112 298.835846,71.167839 
	C296.309052,74.642632 297.653198,81.266335 302.336761,85.372368 
M288.224884,82.781815 
	C286.292633,74.227333 294.631378,69.495789 296.297363,62.121544 
	C287.658844,58.727016 287.899597,67.670471 283.796814,70.610229 
	C279.174927,68.091118 278.790894,58.599133 269.997253,62.341827 
	C270.730164,63.612999 271.286591,64.744690 271.992126,65.774185 
	C276.027954,71.663338 282.200500,76.435944 281.605774,84.771599 
	C281.564392,85.351707 284.134521,86.800850 285.258820,86.593117 
	C286.428314,86.377045 287.316803,84.640007 288.224884,82.781815 
M345.997345,70.558342 
	C345.199127,66.209427 342.478973,67.982674 339.761078,68.431404 
	C339.896393,71.191490 339.911224,73.680687 340.165375,76.145218 
	C340.509613,79.483406 338.861908,80.585770 335.802032,80.664200 
	C329.968170,80.813728 330.917358,76.459648 330.586700,72.978355 
	C330.050110,67.328941 329.641205,67.035606 323.941528,68.931290 
	C324.168915,71.806664 324.239868,74.797546 324.672760,77.735107 
	C325.534943,83.586136 328.379242,86.096504 334.293304,86.557602 
	C343.796570,87.298538 347.162079,83.888969 346.275299,74.430168 
	C346.182037,73.435707 346.139008,72.436539 345.997345,70.558342 
M434.282928,85.730919 
	C442.332886,86.763741 443.147980,86.140953 441.074677,80.541451 
	C434.485565,79.888222 434.175812,79.484680 435.305084,72.934258 
	C436.703827,72.622406 438.128571,72.304764 439.458405,72.008286 
	C441.688873,66.231621 436.504578,67.916130 435.104889,65.864975 
	C433.047394,63.801376 430.989899,61.737778 428.932404,59.674179 
	C428.346497,59.977314 427.760590,60.280449 427.174683,60.583584 
	C427.874115,67.572411 428.358063,74.595039 429.444824,81.523117 
	C429.677429,83.006020 432.095123,84.146172 434.282928,85.730919 
M307.947449,115.054024 
	C307.947449,117.265198 307.947449,119.476372 307.947449,122.747879 
	C305.559448,119.988823 303.750214,118.110085 302.191345,116.042542 
	C300.340546,113.587791 298.467255,111.748848 296.004913,113.367836 
	C296.004913,117.044144 295.823395,120.120071 296.060028,123.163483 
	C296.264587,125.794785 294.639893,129.864243 300.516846,129.575226 
	C300.516846,126.720673 300.516846,124.070747 300.516846,120.899979 
	C305.411957,122.995140 306.239502,129.628738 311.390686,129.832092 
	C311.390686,124.485558 311.473236,119.927345 311.322327,115.376877 
	C311.291443,114.445503 310.385468,113.543144 309.882874,112.627411 
	C309.234619,113.170624 308.586395,113.713829 307.947449,115.054024 
M351.020782,79.575035 
	C351.470673,87.338547 351.681732,87.534958 357.661713,85.466988 
	C357.468719,82.394615 356.155121,78.667473 357.407867,76.296059 
	C358.523865,74.183502 362.479858,73.571220 365.540283,72.128136 
	C366.424103,68.563698 364.492249,67.234344 360.659668,67.595970 
	C357.398682,67.903671 354.130859,68.138763 350.246399,68.456696 
	C350.484955,71.841309 350.726105,75.262108 351.020782,79.575035 
M228.953903,86.761238 
	C230.522888,86.761238 232.091873,86.761238 234.047562,86.761238 
	C233.859222,83.047005 232.649323,79.415451 233.859741,76.993492 
	C234.929428,74.853157 238.696350,74.060829 241.695541,72.445419 
	C242.013504,68.155312 242.012100,68.059616 237.383118,68.127731 
	C233.987671,68.177681 230.596558,68.520325 226.449249,68.779701 
	C227.047058,74.567749 227.651260,80.417732 228.953903,86.761238 
M283.911255,129.895157 
	C294.841370,129.929947 295.755585,128.835617 293.745209,117.989967 
	C293.453369,116.415367 292.998108,114.871048 292.537231,112.979134 
	C289.699677,112.979134 286.898590,112.972260 284.097534,112.980545 
	C277.932312,112.998764 276.580109,113.929161 278.268341,119.849800 
	C279.222931,123.197594 276.698425,128.926422 283.911255,129.895157 
M323.495850,125.475754 
	C324.500458,123.931656 325.599609,122.439407 326.482941,120.828804 
	C327.361450,119.227020 328.414703,117.555138 328.631134,115.819214 
	C328.758698,114.796303 327.408264,113.589119 326.722534,112.464798 
	C326.176575,113.445702 325.716858,114.488693 325.065186,115.393440 
	C323.995972,116.877945 322.633484,119.551277 321.697571,119.427788 
	C319.975372,119.200577 318.349274,117.435036 316.921204,116.062866 
	C315.909058,115.090355 315.288422,113.710434 314.493042,112.512367 
	C314.134613,114.265854 313.323608,116.086334 313.569977,117.750275 
	C313.746887,118.945091 315.442780,119.855522 316.271576,121.026871 
	C317.598755,122.902534 318.765045,124.891823 320.007202,126.828018 
	C320.637421,127.810303 321.284882,128.781509 321.924530,129.757721 
	C322.469086,128.602905 323.013611,127.448090 323.495850,125.475754 
M423.229401,128.951508 
	C424.174530,128.503220 425.983978,127.894585 425.935028,127.630753 
	C425.215088,123.750420 427.268951,121.633987 430.064636,119.390244 
	C432.730682,117.250565 431.368408,113.114670 427.886108,112.388611 
	C427.787537,113.196106 427.941437,114.150070 427.547760,114.736382 
	C426.455078,116.363770 425.134552,117.838173 423.904053,119.373024 
	C422.348419,118.089806 420.712646,116.889740 419.265106,115.494377 
	C418.286011,114.550537 417.571777,113.331886 416.739044,112.236153 
	C416.432343,113.746208 415.773010,115.294876 415.932770,116.753838 
	C416.056274,117.881584 416.963104,119.396500 417.943024,119.873154 
	C421.595215,121.649658 422.765411,124.619186 423.229401,128.951508 
M262.000000,124.500000 
	C262.200012,124.633331 262.399994,124.766663 262.600006,124.900002 
	C262.566681,124.599998 262.533325,124.300003 262.000000,124.500000 
z"/>
<path fill="#5F9431" opacity="1.000000" stroke="none" 
	d="
M71.576492,126.075401 
	C71.674004,126.210487 71.770836,126.463394 71.869125,126.463959 
	C82.917885,126.527390 93.995407,127.042389 105.000664,126.372032 
	C109.055984,126.125015 110.711021,121.639969 110.682869,117.459366 
	C110.666077,114.966980 110.260727,112.479469 110.173332,109.984749 
	C110.049568,106.451790 111.243599,103.679520 115.132759,103.076912 
	C118.936798,102.487495 122.047630,104.021011 122.895966,107.748535 
	C127.014366,125.844383 120.538963,140.773102 99.997154,140.825195 
	C78.343575,140.880112 56.689983,140.983078 35.036415,140.979202 
	C18.966095,140.976334 8.867178,132.068802 7.534842,116.144424 
	C5.646410,93.573433 4.072211,70.974060 2.591076,48.371918 
	C1.798149,36.271835 10.636577,26.356728 22.723913,25.380816 
	C25.867899,25.126972 29.065855,25.095339 32.206532,25.354856 
	C36.551880,25.713917 39.818531,29.167982 39.395081,32.789696 
	C38.894310,37.072678 35.909458,38.490707 32.021175,38.739983 
	C16.043060,39.764320 15.483668,40.418392 16.662170,56.668369 
	C18.083849,76.271408 19.523424,95.873161 20.949244,115.475899 
	C21.568459,123.989098 25.147860,127.519478 33.605957,127.461555 
	C42.400913,127.401344 51.193993,127.067223 60.578411,126.508438 
	C64.664474,129.231369 68.125404,128.231247 71.576492,126.075401 
z"/>
<path fill="#609532" opacity="1.000000" stroke="none" 
	d="
M298.001526,92.480385 
	C372.623566,92.215027 446.746216,91.981186 520.868896,91.748047 
	C521.368713,91.746475 521.868591,91.759354 522.368408,91.757378 
	C525.457886,91.745193 528.868469,91.649094 529.013184,95.878281 
	C529.166748,100.362831 525.543335,100.032906 522.566528,100.045685 
	C503.588226,100.127159 484.609650,100.134155 465.631256,100.201317 
	C365.429718,100.555893 265.228180,100.919739 165.026672,101.286171 
	C159.536423,101.306244 154.046143,101.429832 148.556290,101.406700 
	C145.397980,101.393387 142.094757,100.925179 142.214035,96.819504 
	C142.331223,92.785065 145.761841,93.059036 148.583908,93.049225 
	C186.398148,92.917809 224.212494,92.822075 262.026794,92.701057 
	C273.851959,92.663216 285.677032,92.576363 298.001526,92.480385 
z"/>
<path fill="#5D922D" opacity="1.000000" stroke="none" 
	d="
M111.019783,16.227833 
	C111.019783,16.227835 110.551346,16.383959 110.124054,16.016781 
	C107.440475,15.855628 105.184204,16.061653 102.927925,16.267681 
	C102.215965,16.332529 101.503998,16.397377 100.246246,16.068844 
	C95.115501,15.897875 90.530540,16.120285 85.945580,16.342697 
	C82.606102,16.438255 79.266617,16.533812 75.333763,16.188011 
	C73.615952,15.609502 72.491516,15.472350 71.367081,15.335197 
	C68.180069,13.957533 66.876022,11.536664 67.632858,8.167279 
	C68.467659,4.450788 71.159775,3.239183 74.681503,3.232143 
	C93.091774,3.195341 111.502441,3.073713 129.911636,3.190431 
	C131.857330,3.202767 133.794388,4.578775 135.849365,5.998141 
	C136.489410,7.466177 137.015549,8.258204 137.541687,9.050229 
	C137.721313,10.103327 137.900940,11.156425 137.797638,12.765236 
	C137.709686,13.890203 137.904663,14.459457 138.099640,15.028711 
	C138.420624,18.401085 138.741623,21.773457 138.764191,25.774742 
	C138.708969,27.621075 138.952179,28.838491 139.195374,30.055908 
	C139.466171,32.745441 139.736969,35.434971 139.720673,38.774170 
	C139.691254,40.634853 139.948929,41.845867 140.206604,43.056877 
	C140.498444,46.400661 140.790268,49.744450 140.783905,53.743057 
	C140.771591,55.617393 141.057465,56.836903 141.343353,58.056412 
	C141.550156,60.145535 141.756958,62.234661 141.765076,65.079178 
	C141.316757,67.377945 141.067139,68.921310 140.817535,70.464676 
	C140.817535,70.464676 140.825119,70.728394 140.316940,70.838531 
	C137.647491,71.425095 135.486237,71.901527 133.324966,72.377960 
	C131.909225,70.803406 130.493500,69.228859 129.318817,67.143539 
	C129.308823,65.736481 129.057755,64.840187 128.806702,63.943890 
	C128.540466,61.248600 128.274246,58.553314 128.324402,55.161503 
	C128.329803,52.625210 128.018845,50.785442 127.707870,48.945675 
	C127.448120,46.259071 127.188370,43.572472 127.233612,40.242622 
	C127.279449,38.380890 127.020287,37.162403 126.761131,35.943920 
	C126.507919,33.579918 126.254715,31.215918 126.292221,28.212420 
	C126.472832,26.853401 126.362724,26.133881 126.252609,25.414364 
	C125.477905,26.079193 124.703194,26.744019 123.928482,27.408840 
	C121.152336,30.509245 118.376190,33.609653 114.949028,36.878838 
	C113.551437,38.074543 112.804863,39.101475 112.058289,40.128403 
	C109.232086,43.313194 106.405884,46.497986 102.954712,49.877060 
	C101.902138,50.749081 101.474533,51.426811 101.046928,52.104546 
	C100.438171,52.803638 99.829407,53.502731 98.523911,54.334229 
	C94.160927,52.345558 90.494682,50.224483 86.828430,48.103405 
	C95.860352,38.227386 104.892281,28.351370 114.478691,18.184971 
	C115.105728,17.225737 115.178276,16.556887 115.250824,15.888038 
	C114.476624,16.000692 113.702415,16.113346 112.928215,16.226000 
	C112.928215,16.226000 112.456863,16.372698 112.155991,16.089794 
	C111.576675,15.947206 111.298225,16.087519 111.019783,16.227833 
z"/>
<path fill="#111111" opacity="1.000000" stroke="none" 
	d="
M86.468689,48.100071 
	C90.494682,50.224483 94.160927,52.345558 98.174797,54.401943 
	C98.506821,64.895218 98.369347,75.454758 98.506020,86.010750 
	C98.682838,99.667755 93.261124,110.329727 82.081451,118.154327 
	C78.694717,120.524681 75.471672,123.128906 71.875069,125.850708 
	C68.125404,128.231247 64.664474,129.231369 60.838951,126.110443 
	C53.393040,120.908379 45.886318,116.210854 39.273914,110.481216 
	C32.985401,105.032219 29.649458,97.477928 28.277124,89.193634 
	C26.755667,80.009132 25.437412,70.784966 23.645918,61.653561 
	C22.655445,56.605038 24.959219,54.044113 28.880995,51.622147 
	C46.851006,40.524445 65.271858,37.549488 84.649513,47.853642 
	C85.062347,48.073166 85.619247,48.021755 86.468689,48.100071 
M51.815121,112.740379 
	C55.037029,114.814163 58.258934,116.887947 62.281544,119.477104 
	C61.725357,112.412811 61.264767,106.562675 60.823483,100.957802 
	C57.339115,101.674271 54.001186,103.473701 51.850456,102.539604 
	C48.696857,101.169968 46.260025,97.964409 43.819084,95.268349 
	C43.199558,94.584076 43.230083,92.229706 43.826771,91.773224 
	C44.779480,91.044388 47.329525,90.652489 47.692978,91.173111 
	C51.673702,96.875351 56.682171,94.627480 61.741131,93.545296 
	C63.770512,93.111191 66.197296,93.217590 68.130974,93.927910 
	C72.141960,95.401299 75.517296,96.235725 78.242012,91.661873 
	C78.705826,90.883278 81.387810,91.426079 83.045036,91.358421 
	C83.048149,92.973846 83.689911,95.008980 82.949425,96.135727 
	C78.550606,102.829086 76.641586,103.373650 69.431213,100.923462 
	C69.004539,100.778473 68.485718,100.904671 67.499939,100.904671 
	C67.958260,106.851646 68.405754,112.658119 68.928246,119.437675 
	C72.956963,116.487350 76.011024,114.264336 79.050819,112.021973 
	C86.584259,106.464813 90.972176,98.999611 91.584206,89.694489 
	C92.193604,80.429436 92.376999,71.125580 92.350189,61.839882 
	C92.345604,60.254982 90.701431,57.994267 89.206238,57.218498 
	C84.198479,54.620266 79.007111,52.305355 73.715752,50.340618 
	C65.508759,47.293278 57.019787,46.851063 48.766983,49.936604 
	C43.031567,52.080956 37.526520,54.912289 32.126953,57.823265 
	C31.070169,58.392994 30.352245,60.815830 30.533295,62.250828 
	C31.449879,69.515678 32.939003,76.709801 33.807198,83.978912 
	C35.263802,96.174568 41.005886,105.584740 51.815121,112.740379 
z"/>
<path fill="#6F9E45" opacity="1.000000" stroke="none" 
	d="
M141.222778,70.440247 
	C141.067139,68.921310 141.316757,67.377945 141.713898,65.531639 
	C148.061172,62.223579 154.546021,61.338840 161.395584,62.144848 
	C165.524948,62.630764 166.889526,64.466820 165.605667,68.699379 
	C160.481171,68.924995 155.052155,66.156738 148.794281,69.967155 
	C151.153076,70.745415 152.253418,71.245010 153.406128,71.450020 
	C154.538391,71.651405 155.724823,71.534035 156.885864,71.590149 
	C164.588409,71.962402 168.396164,74.675293 168.476715,79.835663 
	C168.551422,84.623276 164.734665,87.097069 156.953217,87.167267 
	C154.133270,87.192719 151.311829,86.928513 148.489975,86.898247 
	C144.423187,86.854622 142.683899,84.994576 143.706146,80.582367 
	C149.304413,79.730881 155.416458,83.236084 161.162323,79.128326 
	C154.333801,76.717117 145.448212,78.984688 141.222778,70.440247 
z"/>
<path fill="#659838" opacity="1.000000" stroke="none" 
	d="
M369.275024,73.819290 
	C369.023987,69.745209 368.802673,66.131065 368.491394,61.047592 
	C375.533783,61.432007 382.163422,61.128414 388.508240,62.329506 
	C394.713593,63.504200 397.447845,69.299263 396.796631,76.912163 
	C396.336365,82.293053 393.257446,85.379120 386.777954,86.029221 
	C382.510529,86.457375 378.163208,86.072578 373.851776,86.084717 
	C371.242859,86.092064 369.901428,85.047493 369.908203,82.227531 
	C369.914581,79.578583 369.521851,76.928688 369.275024,73.819290 
M378.902893,80.710396 
	C380.387726,80.693634 381.885529,80.796059 383.354797,80.636246 
	C386.815918,80.259811 389.955658,79.538322 389.847076,74.918274 
	C389.746521,70.639771 388.556152,67.363625 383.633453,67.061142 
	C381.227020,66.913269 378.804016,67.035538 375.034607,67.035538 
	C376.158478,72.064789 377.111420,76.329010 378.902893,80.710396 
z"/>
<path fill="#6A9B3E" opacity="1.000000" stroke="none" 
	d="
M457.203430,86.084953 
	C454.468079,85.714096 451.873444,85.909004 450.024475,84.828194 
	C448.290192,83.814415 446.097748,81.284279 446.307739,79.716133 
	C446.766235,76.292320 448.735535,73.090714 447.572784,69.376976 
	C447.489166,69.109840 448.693878,68.012016 449.275970,68.030830 
	C454.313629,68.193703 459.442535,68.055550 464.326202,69.063614 
	C465.991791,69.407425 467.676208,72.598801 468.216370,74.771431 
	C469.038483,78.077843 468.871246,81.630249 469.149139,85.418358 
	C465.078369,85.657867 461.374023,85.875816 457.203430,86.084953 
z"/>
<path fill="#6A9B3E" opacity="1.000000" stroke="none" 
	d="
M201.736954,76.878517 
	C202.097305,75.670097 202.632263,74.621506 202.357666,73.867897 
	C201.181320,70.639458 201.841614,68.666176 205.549133,68.440575 
	C207.872971,68.299171 210.211151,68.106064 212.529572,68.216248 
	C219.945053,68.568657 222.524673,71.203415 222.996017,78.671593 
	C223.152344,81.148415 223.294174,83.626152 223.480621,86.737602 
	C217.847855,86.737602 212.406860,87.185051 207.074081,86.616859 
	C201.271118,85.998558 199.552490,82.535072 201.736954,76.878517 
z"/>
<path fill="#689A3C" opacity="1.000000" stroke="none" 
	d="
M402.252930,76.547913 
	C402.712158,75.406563 403.292236,74.427238 403.081573,73.666977 
	C402.226990,70.582451 401.881042,67.976913 406.263062,67.787933 
	C408.414886,67.695129 410.569214,67.389908 412.714111,67.455170 
	C420.615814,67.695633 423.309784,70.377068 423.810883,78.320229 
	C423.956238,80.624626 424.052612,82.932121 424.212219,86.030075 
	C418.666992,86.030075 413.423737,86.380028 408.248383,85.936996 
	C402.440765,85.439842 400.500854,82.217773 402.252930,76.547913 
z"/>
<path fill="#68993B" opacity="1.000000" stroke="none" 
	d="
M184.716827,74.151299 
	C179.684875,73.647827 178.418533,75.861336 179.250595,80.109924 
	C179.654434,82.172035 179.562408,84.331253 179.715775,86.780289 
	C177.670609,86.780289 176.083893,86.780289 173.704865,86.780289 
	C173.043793,77.657539 172.381332,68.515648 171.707428,59.215607 
	C178.454208,59.263943 177.971512,64.112183 178.423691,66.719872 
	C184.024902,68.578545 190.175690,68.908325 193.286789,72.152802 
	C196.164139,75.153542 195.786423,81.275520 196.847595,86.047020 
	C191.972153,87.895470 189.951431,87.221107 189.833755,82.576286 
	C189.747086,79.155144 190.611191,74.755867 184.716827,74.151299 
z"/>
<path fill="#6A9B3E" opacity="1.000000" stroke="none" 
	d="
M266.768005,81.268982 
	C267.930786,84.841530 266.591187,86.654366 262.877258,86.710571 
	C260.067413,86.753098 257.217041,87.015434 254.453796,86.653130 
	C248.330200,85.850220 245.521851,81.941284 245.969620,75.395500 
	C246.296341,70.618759 249.261841,68.270271 255.371918,68.078773 
	C257.351593,68.016731 259.370331,67.977638 261.315979,68.281624 
	C267.290802,69.215126 268.900421,72.018517 266.543945,78.479279 
	C261.619171,78.851387 257.311066,78.851387 253.002975,78.851387 
	C252.977203,79.494911 252.951431,80.138428 252.925644,80.781952 
	C257.539764,80.944290 262.153900,81.106636 266.768005,81.268982 
z"/>
<path fill="#67993A" opacity="1.000000" stroke="none" 
	d="
M301.991699,85.195755 
	C297.653198,81.266335 296.309052,74.642632 298.835846,71.167839 
	C301.337860,67.727112 310.658356,66.643669 315.665192,69.211548 
	C319.516785,71.186935 321.897278,77.640564 319.658142,81.859863 
	C318.642090,83.774399 316.102600,85.806038 314.051178,86.045540 
	C310.224731,86.492256 306.249847,85.667801 301.991699,85.195755 
M305.925751,73.982338 
	C305.428040,75.759987 304.930298,77.537636 304.432587,79.315285 
	C306.894928,79.758354 309.370483,80.543243 311.812042,80.448730 
	C312.606537,80.417969 314.204926,77.292603 313.901825,76.953430 
	C312.673492,75.579010 310.905487,74.626183 309.213318,73.758171 
	C308.574219,73.430344 307.601105,73.753654 305.925751,73.982338 
z"/>
<path fill="#68993B" opacity="1.000000" stroke="none" 
	d="
M288.276520,83.174927 
	C287.316803,84.640007 286.428314,86.377045 285.258820,86.593117 
	C284.134521,86.800850 281.564392,85.351707 281.605774,84.771599 
	C282.200500,76.435944 276.027954,71.663338 271.992126,65.774185 
	C271.286591,64.744690 270.730164,63.612999 269.997253,62.341827 
	C278.790894,58.599133 279.174927,68.091118 283.796814,70.610229 
	C287.899597,67.670471 287.658844,58.727016 296.297363,62.121544 
	C294.631378,69.495789 286.292633,74.227333 288.276520,83.174927 
z"/>
<path fill="#67993A" opacity="1.000000" stroke="none" 
	d="
M346.035034,70.998947 
	C346.139008,72.436539 346.182037,73.435707 346.275299,74.430168 
	C347.162079,83.888969 343.796570,87.298538 334.293304,86.557602 
	C328.379242,86.096504 325.534943,83.586136 324.672760,77.735107 
	C324.239868,74.797546 324.168915,71.806664 323.941528,68.931290 
	C329.641205,67.035606 330.050110,67.328941 330.586700,72.978355 
	C330.917358,76.459648 329.968170,80.813728 335.802032,80.664200 
	C338.861908,80.585770 340.509613,79.483406 340.165375,76.145218 
	C339.911224,73.680687 339.896393,71.191490 339.761078,68.431404 
	C342.478973,67.982674 345.199127,66.209427 346.035034,70.998947 
z"/>
<path fill="#6A9B3E" opacity="1.000000" stroke="none" 
	d="
M433.894562,85.587570 
	C432.095123,84.146172 429.677429,83.006020 429.444824,81.523117 
	C428.358063,74.595039 427.874115,67.572411 427.174683,60.583584 
	C427.760590,60.280449 428.346497,59.977314 428.932404,59.674179 
	C430.989899,61.737778 433.047394,63.801376 435.104889,65.864975 
	C436.504578,67.916130 441.688873,66.231621 439.458405,72.008286 
	C438.128571,72.304764 436.703827,72.622406 435.305084,72.934258 
	C434.175812,79.484680 434.485565,79.888222 441.074677,80.541451 
	C443.147980,86.140953 442.332886,86.763741 433.894562,85.587570 
z"/>
<path fill="#282828" opacity="1.000000" stroke="none" 
	d="
M352.047974,126.683350 
	C346.958771,130.025879 346.965820,130.025055 346.184753,123.305756 
	C346.079712,122.402344 345.861511,121.512077 345.647675,120.355911 
	C341.598572,124.063965 341.598572,124.063965 334.265900,121.002983 
	C334.132507,124.019958 334.005219,126.899261 333.837067,130.702759 
	C332.523346,129.544617 331.220520,128.958755 331.130768,128.224609 
	C330.591217,123.810913 330.244263,119.366631 330.065063,114.923218 
	C330.036987,114.227707 331.144531,112.955078 331.817444,112.890350 
	C332.764801,112.799217 334.046906,113.340569 334.743866,114.047318 
	C336.562927,115.891960 338.141663,117.973602 340.220367,120.440300 
	C341.773804,118.172279 342.813599,116.301376 344.207153,114.747749 
	C345.086853,113.766960 346.495087,113.260239 347.666199,112.540848 
	C348.136322,113.681114 348.799500,114.782120 349.040894,115.968918 
	C349.811218,119.755737 350.424866,123.574417 351.593384,127.135010 
	C352.087769,126.889229 352.047974,126.683350 352.047974,126.683350 
z"/>
<path fill="#313131" opacity="1.000000" stroke="none" 
	d="
M307.942810,114.655533 
	C308.586395,113.713829 309.234619,113.170624 309.882874,112.627411 
	C310.385468,113.543144 311.291443,114.445503 311.322327,115.376877 
	C311.473236,119.927345 311.390686,124.485558 311.390686,129.832092 
	C306.239502,129.628738 305.411957,122.995140 300.516846,120.899979 
	C300.516846,124.070747 300.516846,126.720673 300.516846,129.575226 
	C294.639893,129.864243 296.264587,125.794785 296.060028,123.163483 
	C295.823395,120.120071 296.004913,117.044144 296.004913,113.367836 
	C298.467255,111.748848 300.340546,113.587791 302.191345,116.042542 
	C303.750214,118.110085 305.559448,119.988823 307.947449,122.747879 
	C307.947449,119.476372 307.947449,117.265198 307.942810,114.655533 
z"/>
<path fill="#313131" opacity="1.000000" stroke="none" 
	d="
M366.205566,114.553253 
	C366.352509,114.629997 366.558289,114.812668 366.638031,114.768387 
	C372.326782,111.609825 372.320557,111.608727 372.860901,119.101311 
	C373.013672,121.219749 373.208038,123.335197 373.396210,125.607361 
	C376.216003,125.607361 378.615204,125.607361 381.520721,125.607361 
	C381.317078,122.339348 380.968689,119.405235 381.024231,116.478783 
	C381.050568,115.088531 381.847198,113.712891 382.294922,112.330627 
	C382.992828,113.589378 383.690765,114.848137 384.363678,116.841866 
	C384.579041,119.389946 384.819427,121.203049 385.059784,123.016159 
	C385.133118,129.491241 385.114655,129.714142 378.594543,129.493652 
	C375.495087,129.388840 372.428833,128.302353 369.183380,126.927376 
	C369.001251,124.225197 369.035034,122.251915 368.872101,120.295006 
	C368.858276,120.129089 367.529541,120.072662 366.562042,119.660278 
	C366.276794,117.754547 366.241180,116.153900 366.205566,114.553253 
z"/>
<path fill="#68993B" opacity="1.000000" stroke="none" 
	d="
M350.994019,79.128967 
	C350.726105,75.262108 350.484955,71.841309 350.246399,68.456696 
	C354.130859,68.138763 357.398682,67.903671 360.659668,67.595970 
	C364.492249,67.234344 366.424103,68.563698 365.540283,72.128136 
	C362.479858,73.571220 358.523865,74.183502 357.407867,76.296059 
	C356.155121,78.667473 357.468719,82.394615 357.661713,85.466988 
	C351.681732,87.534958 351.470673,87.338547 350.994019,79.128967 
z"/>
<path fill="#6A9B3E" opacity="1.000000" stroke="none" 
	d="
M228.604675,86.514473 
	C227.651260,80.417732 227.047058,74.567749 226.449249,68.779701 
	C230.596558,68.520325 233.987671,68.177681 237.383118,68.127731 
	C242.012100,68.059616 242.013504,68.155312 241.695541,72.445419 
	C238.696350,74.060829 234.929428,74.853157 233.859741,76.993492 
	C232.649323,79.415451 233.859222,83.047005 234.047562,86.761238 
	C232.091873,86.761238 230.522888,86.761238 228.604675,86.514473 
z"/>
<path fill="#262626" opacity="1.000000" stroke="none" 
	d="
M386.879272,116.960945 
	C386.499939,113.254906 388.340271,111.867821 391.845551,112.166237 
	C394.580963,112.399124 397.320374,112.585526 400.562439,113.306137 
	C402.578217,117.248512 401.695862,117.328552 398.449371,116.250061 
	C396.131653,115.480095 393.321991,116.157700 390.741180,116.329788 
	C390.634003,116.336937 390.474731,118.421272 390.587616,118.446915 
	C392.740997,118.936127 394.932892,119.561234 397.114288,119.552200 
	C400.617950,119.537682 402.539551,120.612442 402.024719,124.476158 
	C401.828156,125.951164 401.931396,127.466133 401.898010,128.962891 
	C398.866791,129.317551 395.842499,129.757996 392.802460,130.002914 
	C389.723053,130.251022 387.813080,128.942917 388.223785,125.200607 
	C394.842010,128.516541 398.185272,128.005936 398.617340,123.022415 
	C395.219543,122.857155 391.828156,122.692207 388.436768,122.527252 
	C388.140869,122.173004 387.844940,121.818756 387.502136,121.017509 
	C387.263275,119.367325 387.071259,118.164139 386.879272,116.960945 
z"/>
<path fill="#232323" opacity="1.000000" stroke="none" 
	d="
M259.196594,123.076508 
	C259.196594,125.208031 259.196594,127.339561 259.196594,129.471085 
	C258.759735,129.693161 258.322876,129.915222 257.885986,130.137299 
	C256.985504,128.692612 256.085022,127.247910 254.911194,125.364693 
	C253.010803,125.364693 250.563278,125.364693 247.836288,125.364693 
	C247.696579,126.271355 247.683548,127.252296 247.366074,128.122131 
	C247.127594,128.775574 246.498032,129.286285 246.042557,129.860535 
	C245.393860,129.263855 244.263580,128.727875 244.179413,128.060043 
	C243.805283,125.091759 243.089188,121.943527 243.712692,119.129807 
	C244.468170,115.720490 246.632019,112.385956 250.850723,112.885300 
	C253.525787,113.201942 258.023041,110.153259 258.501160,116.781235 
	C258.701904,119.383728 258.949249,121.230118 259.196594,123.076508 
M254.758469,116.538063 
	C250.477280,115.183273 248.013428,116.765167 246.948883,121.088440 
	C254.733948,122.715050 255.697647,122.230202 254.758469,116.538063 
z"/>
<path fill="#2A2A2A" opacity="1.000000" stroke="none" 
	d="
M283.470825,129.895355 
	C276.698425,128.926422 279.222931,123.197594 278.268341,119.849800 
	C276.580109,113.929161 277.932312,112.998764 284.097534,112.980545 
	C286.898590,112.972260 289.699677,112.979134 292.537231,112.979134 
	C292.998108,114.871048 293.453369,116.415367 293.745209,117.989967 
	C295.755585,128.835617 294.841370,129.929947 283.470825,129.895355 
M284.744690,126.316460 
	C286.774231,126.316460 288.803772,126.316460 290.821075,126.316460 
	C290.798920,115.291580 290.585968,115.072517 281.366516,116.863228 
	C282.194336,120.006989 283.013123,123.116379 284.744690,126.316460 
z"/>
<path fill="#2D2D2D" opacity="1.000000" stroke="none" 
	d="
M366.133026,114.189095 
	C366.241180,116.153900 366.276794,117.754547 366.567078,120.118767 
	C367.050842,123.007538 367.279938,125.132736 367.509033,127.257935 
	C364.229645,130.522980 356.300537,130.651764 352.300659,127.092102 
	C352.047974,126.683350 352.087769,126.889229 352.096375,126.942261 
	C351.955109,123.515663 351.899719,120.028603 351.626770,116.558647 
	C351.390381,113.553757 352.652802,112.051476 355.609741,112.351555 
	C359.107147,112.706467 362.578064,113.322243 366.133026,114.189095 
M363.358856,117.163857 
	C360.724030,116.634094 358.089203,116.104324 355.331818,115.549919 
	C354.781769,126.384010 355.617798,127.257118 363.987396,125.257576 
	C363.847687,122.903343 363.703247,120.469978 363.358856,117.163857 
z"/>
<path fill="#3F3F3F" opacity="1.000000" stroke="none" 
	d="
M323.527008,125.884514 
	C323.013611,127.448090 322.469086,128.602905 321.924530,129.757721 
	C321.284882,128.781509 320.637421,127.810303 320.007202,126.828018 
	C318.765045,124.891823 317.598755,122.902534 316.271576,121.026871 
	C315.442780,119.855522 313.746887,118.945091 313.569977,117.750275 
	C313.323608,116.086334 314.134613,114.265854 314.493042,112.512367 
	C315.288422,113.710434 315.909058,115.090355 316.921204,116.062866 
	C318.349274,117.435036 319.975372,119.200577 321.697571,119.427788 
	C322.633484,119.551277 323.995972,116.877945 325.065186,115.393440 
	C325.716858,114.488693 326.176575,113.445702 326.722534,112.464798 
	C327.408264,113.589119 328.758698,114.796303 328.631134,115.819214 
	C328.414703,117.555138 327.361450,119.227020 326.482941,120.828804 
	C325.599609,122.439407 324.500458,123.931656 323.527008,125.884514 
z"/>
<path fill="#373737" opacity="1.000000" stroke="none" 
	d="
M423.012604,128.650757 
	C422.765411,124.619186 421.595215,121.649658 417.943024,119.873154 
	C416.963104,119.396500 416.056274,117.881584 415.932770,116.753838 
	C415.773010,115.294876 416.432343,113.746208 416.739044,112.236145 
	C417.571777,113.331886 418.286011,114.550537 419.265106,115.494377 
	C420.712646,116.889740 422.348419,118.089806 423.904053,119.373016 
	C425.134552,117.838173 426.455078,116.363770 427.547760,114.736382 
	C427.941437,114.150070 427.787537,113.196106 427.886108,112.388611 
	C431.368408,113.114670 432.730682,117.250565 430.064636,119.390244 
	C427.268951,121.633987 425.215088,123.750420 425.935028,127.630753 
	C425.983978,127.894585 424.174530,128.503220 423.012604,128.650757 
z"/>
<path fill="#191919" opacity="1.000000" stroke="none" 
	d="
M260.962982,117.002869 
	C261.047882,115.719231 261.132782,114.435600 261.246399,112.717697 
	C268.446198,113.240685 267.695221,124.269897 275.689880,122.731194 
	C276.135712,125.017090 276.528473,127.030861 277.079773,129.857483 
	C270.499725,128.923965 269.454285,122.403603 265.312225,120.040047 
	C264.270508,121.329674 263.149841,122.716995 261.874390,123.266121 
	C261.467407,120.619576 261.215179,118.811218 260.962982,117.002869 
z"/>
<path fill="#242424" opacity="1.000000" stroke="none" 
	d="
M404.486176,112.882545 
	C407.062225,111.352913 407.718475,112.836014 407.894623,115.059052 
	C408.167450,118.502296 408.434723,121.945992 408.695984,125.282089 
	C412.756348,125.799324 416.326782,126.254150 419.897217,126.708969 
	C419.812439,127.465248 419.727661,128.221527 419.642883,128.977798 
	C415.123444,128.977798 410.604004,128.977798 405.579102,128.479782 
	C404.877838,122.948700 404.682007,117.915619 404.486176,112.882545 
z"/>
<path fill="#D2D2D2" opacity="1.000000" stroke="none" 
	d="
M404.116669,112.905579 
	C404.682007,117.915619 404.877838,122.948700 405.125549,128.440063 
	C404.357056,128.899719 403.536682,128.901108 402.307159,128.932678 
	C401.931396,127.466133 401.828156,125.951164 402.024719,124.476158 
	C402.539551,120.612442 400.617950,119.537682 397.114288,119.552200 
	C394.932892,119.561234 392.740997,118.936127 390.587616,118.446915 
	C390.474731,118.421272 390.634003,116.336937 390.741180,116.329788 
	C393.321991,116.157700 396.131653,115.480095 398.449371,116.250061 
	C401.695862,117.328552 402.578217,117.248512 400.931030,113.473190 
	C401.779175,113.060677 402.763184,112.994644 404.116669,112.905579 
z"/>
<path fill="#C6C6C6" opacity="1.000000" stroke="none" 
	d="
M388.286987,122.889282 
	C391.828156,122.692207 395.219543,122.857155 398.617340,123.022415 
	C398.185272,128.005936 394.842010,128.516541 388.303467,124.785393 
	C387.975800,124.276604 388.056519,123.763962 388.286987,122.889282 
z"/>
<path fill="#C8DAB8" opacity="1.000000" stroke="none" 
	d="
M266.820679,80.860100 
	C262.153900,81.106636 257.539764,80.944290 252.925644,80.781952 
	C252.951431,80.138428 252.977203,79.494911 253.002975,78.851387 
	C257.311066,78.851387 261.619171,78.851387 266.380920,78.827347 
	C266.847473,79.352615 266.860413,79.901917 266.820679,80.860100 
z"/>
<path fill="#6F9E45" opacity="1.000000" stroke="none" 
	d="
M86.383072,16.514088 
	C90.530540,16.120285 95.115501,15.897875 99.896118,15.985149 
	C95.668045,16.425047 91.244308,16.555262 86.383072,16.514088 
z"/>
<path fill="#BDBDBD" opacity="1.000000" stroke="none" 
	d="
M260.685791,116.997833 
	C261.215179,118.811218 261.467407,120.619576 261.579895,122.811249 
	C260.881012,123.154884 260.321869,123.115181 259.479645,123.075989 
	C258.949249,121.230118 258.701904,119.383728 258.609558,117.170586 
	C259.312531,116.866821 259.860535,116.929810 260.685791,116.997833 
z"/>
<path fill="#A2A2A2" opacity="1.000000" stroke="none" 
	d="
M367.752258,127.271858 
	C367.279938,125.132736 367.050842,123.007538 366.816711,120.423859 
	C367.529541,120.072662 368.858276,120.129089 368.872101,120.295006 
	C369.035034,122.251915 369.001251,124.225197 368.977295,126.622757 
	C368.607574,127.071419 368.294281,127.149567 367.752258,127.271858 
z"/>
<path fill="#CACACA" opacity="1.000000" stroke="none" 
	d="
M386.597046,116.955460 
	C387.071259,118.164139 387.263275,119.367325 387.317535,120.724564 
	C386.850403,121.258621 386.521027,121.638618 385.625702,122.517387 
	C384.819427,121.203049 384.579041,119.389946 384.484741,117.210480 
	C385.192139,116.879410 385.753479,116.914696 386.597046,116.955460 
z"/>
<path fill="#6F9E45" opacity="1.000000" stroke="none" 
	d="
M103.248573,16.443905 
	C105.184204,16.061653 107.440475,15.855628 109.887314,15.946723 
	C107.908318,16.369274 105.738770,16.494701 103.248573,16.443905 
z"/>
<path fill="#6F9E45" opacity="1.000000" stroke="none" 
	d="
M133.537720,72.640923 
	C135.486237,71.901527 137.647491,71.425095 140.199982,70.899521 
	C138.310959,71.534882 136.030716,72.219383 133.537720,72.640923 
z"/>
<path fill="#6F9E45" opacity="1.000000" stroke="none" 
	d="
M127.563835,49.317284 
	C128.018845,50.785442 128.329803,52.625210 128.390350,54.709133 
	C127.899872,53.198490 127.659836,51.443691 127.563835,49.317284 
z"/>
<path fill="#6F9E45" opacity="1.000000" stroke="none" 
	d="
M140.332031,42.727058 
	C139.948929,41.845867 139.691254,40.634853 139.668869,39.227257 
	C140.088608,40.152863 140.273026,41.275051 140.332031,42.727058 
z"/>
<path fill="#6F9E45" opacity="1.000000" stroke="none" 
	d="
M124.303734,27.454515 
	C124.703194,26.744019 125.477905,26.079193 126.252609,25.414364 
	C126.362724,26.133881 126.472832,26.853401 126.348969,27.764450 
	C125.636322,27.804047 125.157646,27.652117 124.303734,27.454515 
z"/>
<path fill="#6F9E45" opacity="1.000000" stroke="none" 
	d="
M139.332413,29.729362 
	C138.952179,28.838491 138.708969,27.621075 138.706177,26.210461 
	C139.120865,27.145781 139.295151,28.274298 139.332413,29.729362 
z"/>
<path fill="#6F9E45" opacity="1.000000" stroke="none" 
	d="
M126.618164,36.271587 
	C127.020287,37.162403 127.279449,38.380890 127.293465,39.791710 
	C126.857277,38.855785 126.666237,37.727520 126.618164,36.271587 
z"/>
<path fill="#6F9E45" opacity="1.000000" stroke="none" 
	d="
M141.463989,57.721725 
	C141.057465,56.836903 140.771591,55.617393 140.734009,54.201836 
	C141.183075,55.132870 141.383865,56.259953 141.463989,57.721725 
z"/>
<path fill="#6F9E45" opacity="1.000000" stroke="none" 
	d="
M113.127617,16.450642 
	C113.702415,16.113346 114.476624,16.000692 115.250824,15.888038 
	C115.178276,16.556887 115.105728,17.225737 114.755302,17.968439 
	C114.093956,17.586622 113.710487,17.130953 113.127617,16.450642 
z"/>
<path fill="#6F9E45" opacity="1.000000" stroke="none" 
	d="
M112.367325,40.038017 
	C112.804863,39.101475 113.551437,38.074543 114.645996,37.022541 
	C114.221443,37.980858 113.448898,38.964245 112.367325,40.038017 
z"/>
<path fill="#6F9E45" opacity="1.000000" stroke="none" 
	d="
M71.573761,15.617851 
	C72.491516,15.472350 73.615952,15.609502 74.896545,16.058655 
	C73.961945,16.213938 72.871193,16.057222 71.573761,15.617851 
z"/>
<path fill="#191919" opacity="1.000000" stroke="none" 
	d="
M261.975525,129.004562 
	C262.040222,127.721664 262.104919,126.438766 262.169617,125.155869 
	C262.605042,125.112228 263.040497,125.068588 263.475922,125.024940 
	C263.727417,126.031937 263.978912,127.038925 263.775513,128.524475 
	C262.872223,129.003555 262.423889,129.004059 261.975525,129.004562 
z"/>
<path fill="#6F9E45" opacity="1.000000" stroke="none" 
	d="
M128.659775,64.237984 
	C129.057755,64.840187 129.308823,65.736481 129.338226,66.797638 
	C128.915344,66.152359 128.714096,65.342216 128.659775,64.237984 
z"/>
<path fill="#6F9E45" opacity="1.000000" stroke="none" 
	d="
M137.597565,8.747826 
	C137.015549,8.258204 136.489410,7.466177 135.974670,6.352643 
	C136.541855,6.835897 137.097641,7.640660 137.597565,8.747826 
z"/>
<path fill="#BDBDBD" opacity="1.000000" stroke="none" 
	d="
M261.794556,129.169922 
	C262.423889,129.004059 262.872223,129.003555 263.657959,128.997589 
	C263.744446,129.511917 263.493530,130.031708 263.242645,130.551514 
	C262.699615,130.146103 262.156616,129.740707 261.794556,129.169922 
z"/>
<path fill="#6F9E45" opacity="1.000000" stroke="none" 
	d="
M138.244385,14.852455 
	C137.904663,14.459457 137.709686,13.890203 137.738678,13.166261 
	C138.104797,13.566447 138.246948,14.121323 138.244385,14.852455 
z"/>
<path fill="#6F9E45" opacity="1.000000" stroke="none" 
	d="
M101.339249,52.010197 
	C101.474533,51.426811 101.902138,50.749081 102.659821,50.033585 
	C102.537117,50.635830 102.084335,51.275841 101.339249,52.010197 
z"/>
<path fill="#6F9E45" opacity="1.000000" stroke="none" 
	d="
M111.262230,16.318356 
	C111.298225,16.087519 111.576675,15.947206 111.921082,16.014048 
	C111.826248,16.283760 111.665466,16.346319 111.262230,16.318356 
z"/>
<path fill="#191919" opacity="1.000000" stroke="none" 
	d="
M262.250000,124.250000 
	C262.533325,124.300003 262.566681,124.599998 262.600006,124.900002 
	C262.399994,124.766663 262.200012,124.633331 262.250000,124.250000 
z"/>
<path fill="#F6F7F6" opacity="1.000000" stroke="none" 
	d="
M51.526081,112.523926 
	C41.005886,105.584740 35.263802,96.174568 33.807198,83.978912 
	C32.939003,76.709801 31.449879,69.515678 30.533295,62.250828 
	C30.352245,60.815830 31.070169,58.392994 32.126953,57.823265 
	C37.526520,54.912289 43.031567,52.080956 48.766983,49.936604 
	C57.019787,46.851063 65.508759,47.293278 73.715752,50.340618 
	C79.007111,52.305355 84.198479,54.620266 89.206238,57.218498 
	C90.701431,57.994267 92.345604,60.254982 92.350189,61.839882 
	C92.376999,71.125580 92.193604,80.429436 91.584206,89.694489 
	C90.972176,98.999611 86.584259,106.464813 79.050819,112.021973 
	C76.011024,114.264336 72.956963,116.487350 68.928246,119.437675 
	C68.405754,112.658119 67.958260,106.851646 67.499939,100.904671 
	C68.485718,100.904671 69.004539,100.778473 69.431213,100.923462 
	C76.641586,103.373650 78.550606,102.829086 82.949425,96.135727 
	C83.689911,95.008980 83.048149,92.973846 83.045036,91.358421 
	C81.387810,91.426079 78.705826,90.883278 78.242012,91.661873 
	C75.517296,96.235725 72.141960,95.401299 68.130974,93.927910 
	C66.197296,93.217590 63.770512,93.111191 61.741131,93.545296 
	C56.682171,94.627480 51.673702,96.875351 47.692978,91.173111 
	C47.329525,90.652489 44.779480,91.044388 43.826771,91.773224 
	C43.230083,92.229706 43.199558,94.584076 43.819084,95.268349 
	C46.260025,97.964409 48.696857,101.169968 51.850456,102.539604 
	C54.001186,103.473701 57.339115,101.674271 60.823483,100.957802 
	C61.264767,106.562675 61.725357,112.412811 62.281544,119.477104 
	C58.258934,116.887947 55.037029,114.814163 51.526081,112.523926 
M50.301254,74.288185 
	C52.294876,73.965347 55.541901,74.248672 56.046329,73.205635 
	C57.540047,70.116989 54.582939,69.085228 52.266590,68.176613 
	C49.351723,67.033218 46.456749,65.730522 43.429501,65.034645 
	C42.185802,64.748749 40.619461,65.866425 39.199886,66.345657 
	C39.885170,67.826706 40.178715,69.955322 41.336315,70.655602 
	C43.837944,72.168938 46.782703,72.949760 50.301254,74.288185 
M69.889381,74.865196 
	C73.946388,73.513771 78.092873,72.368607 82.000732,70.673370 
	C83.044891,70.220421 84.101692,67.871033 83.787819,66.787766 
	C83.508171,65.822624 81.113594,64.593025 80.048729,64.891968 
	C76.393318,65.918167 72.774513,67.301201 69.408730,69.059326 
	C66.820679,70.411209 65.711891,72.564499 69.889381,74.865196 
z"/>
<path fill="#F1F6ED" opacity="1.000000" stroke="none" 
	d="
M378.483612,80.651817 
	C377.111420,76.329010 376.158478,72.064789 375.034607,67.035538 
	C378.804016,67.035538 381.227020,66.913269 383.633453,67.061142 
	C388.556152,67.363625 389.746521,70.639771 389.847076,74.918274 
	C389.955658,79.538322 386.815918,80.259811 383.354797,80.636246 
	C381.885529,80.796059 380.387726,80.693634 378.483612,80.651817 
z"/>
<path fill="#EEF4EA" opacity="1.000000" stroke="none" 
	d="
M306.353027,73.881241 
	C307.601105,73.753654 308.574219,73.430344 309.213318,73.758171 
	C310.905487,74.626183 312.673492,75.579010 313.901825,76.953430 
	C314.204926,77.292603 312.606537,80.417969 311.812042,80.448730 
	C309.370483,80.543243 306.894928,79.758354 304.432587,79.315285 
	C304.930298,77.537636 305.428040,75.759987 306.353027,73.881241 
z"/>
<path fill="#D2D2D2" opacity="1.000000" stroke="none" 
	d="
M254.995651,116.850906 
	C255.697647,122.230202 254.733948,122.715050 246.948883,121.088440 
	C248.013428,116.765167 250.477280,115.183273 254.995651,116.850906 
z"/>
<path fill="#E5E5E5" opacity="1.000000" stroke="none" 
	d="
M284.288300,126.271118 
	C283.013123,123.116379 282.194336,120.006989 281.366516,116.863228 
	C290.585968,115.072517 290.798920,115.291580 290.821075,126.316460 
	C288.803772,126.316460 286.774231,126.316460 284.288300,126.271118 
z"/>
<path fill="#E7E7E7" opacity="1.000000" stroke="none" 
	d="
M363.458832,117.600235 
	C363.703247,120.469978 363.847687,122.903343 363.987396,125.257576 
	C355.617798,127.257118 354.781769,126.384010 355.331818,115.549919 
	C358.089203,116.104324 360.724030,116.634094 363.458832,117.600235 
z"/>
<path fill="#191919" opacity="1.000000" stroke="none" 
	d="
M49.923721,74.159210 
	C46.782703,72.949760 43.837944,72.168938 41.336315,70.655602 
	C40.178715,69.955322 39.885170,67.826706 39.199886,66.345657 
	C40.619461,65.866425 42.185802,64.748749 43.429501,65.034645 
	C46.456749,65.730522 49.351723,67.033218 52.266590,68.176613 
	C54.582939,69.085228 57.540047,70.116989 56.046329,73.205635 
	C55.541901,74.248672 52.294876,73.965347 49.923721,74.159210 
z"/>
<path fill="#131511" opacity="1.000000" stroke="none" 
	d="
M69.544891,74.690979 
	C65.711891,72.564499 66.820679,70.411209 69.408730,69.059326 
	C72.774513,67.301201 76.393318,65.918167 80.048729,64.891968 
	C81.113594,64.593025 83.508171,65.822624 83.787819,66.787766 
	C84.101692,67.871033 83.044891,70.220421 82.000732,70.673370 
	C78.092873,72.368607 73.946388,73.513771 69.544891,74.690979 
z"/>
</svg>