<!DOCTYPE svg PUBLIC "-//W3C//DTD SVG 1.1//EN" "http://www.w3.org/Graphics/SVG/1.1/DTD/svg11.dtd">

<!-- Uploaded to: SVG Repo, www.svgrepo.com, Transformed by: SVG Repo Mixer Tools -->
<svg fill="#5d5b5b" width="203px" height="203px" viewBox="0 0 256.00 256.00" id="Flat" xmlns="http://www.w3.org/2000/svg" stroke="#5d5b5b">

<g id="SVGRepo_bgCarrier" stroke-width="0"/>

<g id="SVGRepo_tracerCarrier" stroke-linecap="round" stroke-linejoin="round"/>

<g id="SVGRepo_iconCarrier"> <path d="M164,128.00586a4.0002,4.0002,0,0,1-4,4H96a4,4,0,1,1,0-8h64A4.0002,4.0002,0,0,1,164,128.00586Zm-4,28H96a4,4,0,1,0,0,8h64a4,4,0,0,0,0-8Zm52-108v152a28.03146,28.03146,0,0,1-28,28H72a28.03146,28.03146,0,0,1-28-28v-152a12.01343,12.01343,0,0,1,12-12H76v-12a4,4,0,0,1,8,0v12h40v-12a4,4,0,1,1,8,0v12h40v-12a4,4,0,1,1,8,0v12h20A12.01343,12.01343,0,0,1,212,48.00586Zm-8,0a4.00427,4.00427,0,0,0-4-4H180v12a4,4,0,0,1-8,0v-12H132v12a4,4,0,0,1-8,0v-12H84v12a4,4,0,0,1-8,0v-12H56a4.00427,4.00427,0,0,0-4,4v152a20.02229,20.02229,0,0,0,20,20H184a20.02229,20.02229,0,0,0,20-20Z"/> </g>

</svg>